<svg xmlns="http://www.w3.org/2000/svg" xmlns:xlink="http://www.w3.org/1999/xlink" version="1.1" id="Layer_1" x="0px" y="0px" viewBox="0 0 780 440" xml:space="preserve"> <rect fill="#2079C3" width="780" height="440"></rect> <g> <g> <path fill="#FFCE1C" stroke="#162020" stroke-width="1.3448" stroke-miterlimit="10" d="M-1243.9,149.7l12.7-64.9l-59.6,28.8 c-0.8,0.4-0.6,1.6,0.2,1.7l26.2,5l-17.7,23c-0.8,1-0.6,2.4,0.4,3.2l3.6,2.8c1,0.8,2.4,0.6,3.2-0.4l17.6-22.8l11.5,23.9 C-1245.3,150.7-1244.1,150.6-1243.9,149.7z"></path> </g> <line fill="#FFFFFF" stroke="#162020" stroke-width="1.4871" stroke-linecap="round" stroke-linejoin="round" stroke-miterlimit="10" x1="-1219.6" y1="70.2" x2="-1225.2" y2="76.6"></line> <line fill="#FFFFFF" stroke="#162020" stroke-width="1.4871" stroke-linecap="round" stroke-linejoin="round" stroke-miterlimit="10" x1="-1208" y1="84.7" x2="-1225.2" y2="87"></line> <line fill="#FFFFFF" stroke="#162020" stroke-width="1.4871" stroke-linecap="round" stroke-linejoin="round" stroke-miterlimit="10" x1="-1235.8" y1="60.3" x2="-1235.4" y2="77.6"></line> <line fill="#FFFFFF" stroke="#162020" stroke-width="1.4871" stroke-linecap="round" stroke-linejoin="round" stroke-miterlimit="10" x1="-1251.9" y1="75.2" x2="-1245.3" y2="80.6"></line> <line fill="#FFFFFF" stroke="#162020" stroke-width="1.4871" stroke-linecap="round" stroke-linejoin="round" stroke-miterlimit="10" x1="-1217.6" y1="103.2" x2="-1224.2" y2="97.8"></line> </g> <g> <g> <g> <path fill="#162020" d="M284.8,119.3c0.1-1,0.5-2.1,1.3-2.9c1.8-1.8,4.7-1.9,6.5-0.1c1.8,1.8,1.9,4.7,0.1,6.5 c-1.8,1.8-4.7,1.9-6.5,0.1l0,0C285.2,122,284.7,120.6,284.8,119.3z M293,119.9c0.1-1-0.3-2.1-1.1-2.8c-1.4-1.4-3.7-1.3-5.1,0.1 c-1.4,1.4-1.3,3.7,0.1,5.1l0,0c1.4,1.4,3.7,1.3,5.1-0.1C292.6,121.5,293,120.7,293,119.9z M286.6,122.6L286.6,122.6L286.6,122.6z "></path> <g> <path fill="#162020" d="M249.2,109.7c0.1-0.1,0.2-0.1,0.3-0.1l9.4-0.1c0.3,0,0.5,0.2,0.5,0.5c0,0.3-0.2,0.5-0.5,0.5l-9.4,0.1 c-0.3,0-0.5-0.2-0.5-0.5C249,110,249.1,109.8,249.2,109.7z"></path> <path fill="#162020" d="M253.8,105c0.1-0.1,0.2-0.1,0.3-0.1c0.3,0,0.5,0.2,0.5,0.5l0.1,9.4c0,0.3-0.2,0.5-0.5,0.5 c-0.3,0-0.5-0.2-0.5-0.5l-0.1-9.4C253.6,105.2,253.7,105.1,253.8,105z"></path> </g> <path fill="#162020" d="M248.9,145.1c0.1-0.1,0.2-0.1,0.3-0.1c0.1,0,0.3,0,0.4,0.1l5.5,4.9c0.2,0.2,0.2,0.5,0,0.7l-4.9,5.5 c-0.1,0.1-0.2,0.2-0.4,0.2c-0.1,0-0.3,0-0.4-0.1l-5.5-4.9c-0.2-0.2-0.2-0.5,0-0.7L248.9,145.1 C248.9,145.1,248.9,145.1,248.9,145.1z M254,150.4l-4.7-4.2l-4.2,4.7l4.7,4.2L254,150.4z"></path> </g> <g> <rect x="324.8" y="64.4" fill="#A1D2F8" stroke="#162020" stroke-miterlimit="10" width="177.8" height="311.8"></rect> <path fill="#C7E4F9" d="M479.4,103.6h-32.7c-3.9,0-7.1-3.2-7.1-7.1v0c0-3.9,3.2-7.1,7.1-7.1h32.7c3.9,0,7.1,3.2,7.1,7.1v0 C486.5,100.4,483.3,103.6,479.4,103.6z"></path> <g> <rect x="343.1" y="285" fill="#C7E4F9" width="140.8" height="52.3"></rect> <line fill="#C7E4F9" stroke="#162020" stroke-linecap="round" stroke-linejoin="round" stroke-miterlimit="10" x1="381.7" y1="274.4" x2="407.8" y2="274.4"></line> <line fill="#C7E4F9" stroke="#162020" stroke-linecap="round" stroke-linejoin="round" stroke-miterlimit="10" x1="344.2" y1="274.4" x2="370.4" y2="274.4"></line> <line fill="#C7E4F9" stroke="#162020" stroke-linecap="round" stroke-linejoin="round" stroke-miterlimit="10" x1="419.2" y1="274.4" x2="445.3" y2="274.4"></line> </g> <circle fill="#C7E4F9" cx="415.7" cy="128.3" r="6.2"></circle> <g> <polyline fill="none" stroke="#162020" stroke-linecap="round" stroke-linejoin="round" stroke-miterlimit="10" points=" 343.4,354.6 349.6,351 355.7,354.6 "></polyline> <path fill="none" stroke="#162020" stroke-linecap="round" stroke-linejoin="round" stroke-miterlimit="10" d="M344.7,354.2 l1.1,7.6c0.1,0.5,0.5,0.9,1.1,0.9h5.5c0.6,0,1-0.4,1.1-0.9l0.9-7.6"></path> <circle fill="none" stroke="#162020" stroke-linecap="round" stroke-linejoin="round" stroke-miterlimit="10" cx="349.5" cy="356.9" r="2"></circle> </g> <g> <path fill="none" stroke="#162020" stroke-linecap="round" stroke-linejoin="round" stroke-miterlimit="10" d="M395.8,355.8 c0,1.3-0.5,2.4-1.3,3.3c-0.8,0.8-2,1.3-3.3,1.3c-2.5,0-4.6-2.1-4.6-4.6s2.1-4.6,4.6-4.6S395.8,353.3,395.8,355.8z"></path> <line fill="none" stroke="#162020" stroke-linecap="round" stroke-linejoin="round" stroke-miterlimit="10" x1="397.5" y1="362.5" x2="394.4" y2="359.2"></line> </g> <g> <path fill="none" stroke="#162020" stroke-linecap="round" stroke-linejoin="round" stroke-miterlimit="10" d="M440.5,360.4 h-3.9h-4.2h-3.9c0,0,0.7-0.2,1.4-1.7c0.5-1.2,0.4-3.9,0.4-3.9c0-2.2,2.1-4,4.3-4h0.1c2.2,0.1,4.1,1.7,4.1,3.9 c0,0-0.1,3.2,0.5,4.4C439.7,360.1,440.5,360.4,440.5,360.4z"></path> <path fill="none" stroke="#162020" stroke-linecap="round" stroke-linejoin="round" stroke-miterlimit="10" d="M436.6,360.8 c0,1.2-0.9,2.1-2.1,2.1s-2.1-0.9-2.1-2.1"></path> </g> <g> <path fill="none" stroke="#162020" stroke-miterlimit="10" d="M482,362.1h-9.6c-0.5,0-1-0.4-1-1v-8.6c0-0.5,0.4-1,1-1h9.6 c0.5,0,1,0.4,1,1v8.6C482.9,361.7,482.5,362.1,482,362.1z"></path> <polyline fill="none" stroke="#162020" stroke-miterlimit="10" points="471.7,353.4 477.2,356.9 482.8,353.4 "></polyline> </g> <g> <path fill="#FFCE1C" stroke="#162020" stroke-miterlimit="10" d="M191.1,289.5H286c4.9,0,5.4,2.6,4.1,7.4l-7.9,39.4 c-0.9,3.3-3.9,5.5-7.2,5.5h-73.4"></path> <path fill="none" stroke="#162020" stroke-linecap="round" stroke-miterlimit="10" d="M168.8,282.9h13.5c3.8,0,7.1,2.7,7.9,6.4 l12.5,59.9c0.8,3.7,4.1,6.4,7.9,6.4h68.8"></path> <ellipse fill="#FFFFFF" stroke="#162020" stroke-linecap="round" stroke-linejoin="round" stroke-miterlimit="10" cx="218.6" cy="369.7" rx="8.4" ry="8.4"></ellipse> <ellipse fill="#FFFFFF" stroke="#162020" stroke-linecap="round" stroke-linejoin="round" stroke-miterlimit="10" cx="262.4" cy="369.7" rx="8.4" ry="8.4"></ellipse> <line fill="#FFFFFF" stroke="#162020" stroke-linecap="round" stroke-miterlimit="10" x1="197.7" y1="326.5" x2="284.5" y2="326.5"></line> <line fill="#FFFFFF" stroke="#162020" stroke-linecap="round" stroke-miterlimit="10" x1="194.3" y1="305.2" x2="288.3" y2="305.2"></line> <line fill="#FFFFFF" stroke="#162020" stroke-linecap="round" stroke-miterlimit="10" x1="226.6" y1="290.4" x2="226.6" y2="340.9"></line> <line fill="#FFFFFF" stroke="#162020" stroke-linecap="round" stroke-miterlimit="10" x1="257.9" y1="290.4" x2="257.9" y2="341.6"></line> </g> <circle fill="#FFFFFF" stroke="#162020" stroke-linecap="round" stroke-miterlimit="10" cx="241.1" cy="279.9" r="28.4"></circle> <g> <g> <path fill="#FFFFFF" d="M285.4,261.7c-5.2,0-9.5-4.2-9.5-9.5v-96c0-5.2,4.2-9.5,9.5-9.5H550c5.2,0,9.5,4.2,9.5,9.5v96 c0,5.2-4.2,9.5-9.5,9.5H285.4z"></path> <path fill="#162020" d="M550,147.2c4.9,0,9,4,9,9v96c0,4.9-4,9-9,9H285.4c-4.9,0-9-4-9-9v-96c0-4.9,4-9,9-9H550 M550,146.2 H285.4c-5.5,0-10,4.5-10,10v96c0,5.5,4.5,10,10,10H550c5.5,0,10-4.5,10-10v-96C560,150.7,555.5,146.2,550,146.2L550,146.2z"></path> </g> <g> <path fill="#FF95C1" stroke="#162020" stroke-miterlimit="10" d="M363.7,188h-45.2c-2.4,0-4.6,1.6-5.2,4l-11.2,41.2 c-0.9,3.4,1.7,6.8,5.2,6.8H374c3.5,0,6.1-3.3,5.3-6.7L369,192.1C368.4,189.7,366.2,188,363.7,188z"></path> <path fill="none" stroke="#162020" stroke-miterlimit="10" d="M356.2,198v-16.7c0-8.6-7-15.6-15.6-15.6h0 c-8.6,0-15.6,7-15.6,15.6V198"></path> <line fill="none" stroke="#162020" stroke-linecap="round" stroke-miterlimit="10" x1="317.7" y1="210" x2="363.6" y2="210"></line> <line fill="none" stroke="#162020" stroke-linecap="round" stroke-miterlimit="10" x1="320.9" y1="198.2" x2="328.8" y2="198.2"></line> <line fill="none" stroke="#162020" stroke-linecap="round" stroke-miterlimit="10" x1="352" y1="198.2" x2="360" y2="198.2"></line> <line fill="none" stroke="#162020" stroke-miterlimit="10" x1="303.4" y1="229.5" x2="377.9" y2="229.5"></line> </g> <path fill="#3896E3" stroke="#162020" stroke-miterlimit="10" d="M519.8,178.3H414c-2.9,0-5.3-2.4-5.3-5.3v-0.6 c0-2.9,2.4-5.3,5.3-5.3h105.8c2.9,0,5.3,2.4,5.3,5.3v0.6C525.1,175.9,522.7,178.3,519.8,178.3z"></path> <line fill="#FFFFFF" stroke="#162020" stroke-linecap="round" stroke-linejoin="round" stroke-miterlimit="10" x1="409" y1="189.4" x2="502.1" y2="189.4"></line> <g> <rect x="429" y="214.5" fill="#24E0C5" stroke="#162020" stroke-miterlimit="10" width="13.1" height="24.5"></rect> <rect x="447.5" y="214.5" fill="#24E0C5" stroke="#162020" stroke-miterlimit="10" width="13.1" height="24.5"></rect> <rect x="492.1" y="214.5" fill="#24E0C5" stroke="#162020" stroke-miterlimit="10" width="13.1" height="24.5"></rect> <rect x="474.3" y="214.5" fill="#24E0C5" stroke="#162020" stroke-miterlimit="10" width="13.1" height="24.5"></rect> </g> <circle fill="#002138" cx="467.6" cy="238.9" r="1.5"></circle> <g> <path fill="none" stroke="#162020" stroke-linecap="round" stroke-linejoin="round" stroke-miterlimit="10" d="M413.4,226.3 c-4.3,0-6.4-2.1-6.4-4.8s2.9-4.8,6.4-4.8c1.8,0,3.4,0.5,4.5,1.4c1.2,0.9,1.9,2.1,1.9,3.4"></path> <path fill="none" stroke="#162020" stroke-linecap="round" stroke-linejoin="round" stroke-miterlimit="10" d="M413.4,226.3 c4.5,0,7,2.3,7,5.1c0,3-3.1,5.2-7,5.2s-7-2.3-7-5.2"></path> <line fill="none" stroke="#162020" stroke-linecap="round" stroke-linejoin="round" stroke-miterlimit="10" x1="413.4" y1="212.2" x2="413.4" y2="241.7"></line> </g> <path fill="#FFCE1C" stroke="#162020" stroke-width="0.9352" stroke-miterlimit="10" d="M576.4,269.3l-33.6-26.8 c-0.2-0.2-0.5,0-0.5,0.3l0.1,45.3c0,1.3,1.5,1.8,2.3,0.8l8.5-12.9c0.3-0.4,0.9-0.4,1.1,0.1l7.5,15.9c0.4,0.8,0.6,1.7,1.3,1.3 l4.9-2.8c0.8-0.4,0.6-1,0.2-1.8l-7.5-15.8c-0.2-0.5,0.1-1,0.6-1l14.3,0C576.8,271.7,577.3,270,576.4,269.3z"></path> <g> <line fill="none" stroke="#162020" stroke-width="0.9352" stroke-linecap="round" stroke-linejoin="round" stroke-miterlimit="10" x1="533.7" y1="249" x2="529.2" y2="253.3"></line> <line fill="none" stroke="#162020" stroke-width="0.9352" stroke-linecap="round" stroke-linejoin="round" stroke-miterlimit="10" x1="556.5" y1="236" x2="551" y2="238.4"></line> <line fill="none" stroke="#162020" stroke-width="0.9352" stroke-linecap="round" stroke-linejoin="round" stroke-miterlimit="10" x1="534.6" y1="241.3" x2="522.2" y2="236.9"></line> <line fill="none" stroke="#162020" stroke-width="0.9352" stroke-linecap="round" stroke-linejoin="round" stroke-miterlimit="10" x1="538.6" y1="235.5" x2="535.2" y2="227.4"></line> <line fill="none" stroke="#162020" stroke-width="0.9352" stroke-linecap="round" stroke-linejoin="round" stroke-miterlimit="10" x1="545.9" y1="236.1" x2="551.2" y2="223.5"></line> </g> </g> <polyline fill="none" stroke="#162020" stroke-width="1.052" stroke-linecap="round" stroke-linejoin="round" stroke-miterlimit="10" points=" 226.9,274.4 241.2,290.4 255.5,274.4 "></polyline> <path fill="#C7E4F9" d="M397.8,133.8h-50.3c-3,0-5.4-2.4-5.4-5.4v0c0-3,2.4-5.4,5.4-5.4h50.3c3,0,5.4,2.4,5.4,5.4v0 C403.2,131.3,400.8,133.8,397.8,133.8z"></path> <circle fill="#C7E4F9" cx="357.1" cy="95.6" r="15.1"></circle> <path fill="none" stroke="#162020" stroke-width="1.0133" stroke-miterlimit="10" d="M275.8,201.5h-23c-6.4,0-11.6,5.3-11.6,11.9 v77.2"></path> </g> </g> </g> </svg>