<svg xmlns="http://www.w3.org/2000/svg" xmlns:xlink="http://www.w3.org/1999/xlink" version="1.1" x="0px" y="0px" viewBox="0 0 780 440" xml:space="preserve"> <g id="Background"> </g> <g id="Artwork"> <rect fill="#56ADF5" width="780" height="440"></rect> <path fill="#FFFFFF" stroke="#162020" stroke-width="1.25" stroke-miterlimit="10" d="M316.9557,89.805h166.0411 c7.4656,0,13.5177,6.0521,13.5177,13.5177v233.3546c0,7.4656-6.0521,13.5177-13.5177,13.5177H316.9557 c-7.4656,0-13.5177-6.0521-13.5177-13.5177V103.3227C303.438,95.8571,309.4901,89.805,316.9557,89.805z"></path> <path fill="#A1D2F8" stroke="#162020" stroke-width="1.25" stroke-miterlimit="10" d="M463.4508,139.2627h-90.5993 c-4.0604,0-7.352-3.2916-7.352-7.3519v0c0-4.0604,3.2916-7.352,7.352-7.352h90.5993c4.0604,0,7.352,3.2916,7.352,7.352v0 C470.8027,135.9711,467.5112,139.2627,463.4508,139.2627z"></path> <rect x="329.341" y="156.7865" fill="#2079C3" stroke="#162020" stroke-width="1.25" stroke-miterlimit="10" width="141.4682" height="127.7912"></rect> <circle fill="#A1D2F8" stroke="#162020" stroke-width="1.25" stroke-miterlimit="10" cx="340.846" cy="131.1592" r="11.7028"></circle> <line fill="none" stroke="#000000" stroke-width="1.25" stroke-linecap="round" stroke-linejoin="round" stroke-miterlimit="10" stroke-dasharray="5" x1="330.1585" y1="306.2755" x2="471.9783" y2="306.2755"></line> <line fill="none" stroke="#000000" stroke-width="1.25" stroke-linecap="round" stroke-linejoin="round" stroke-miterlimit="10" stroke-dasharray="5" x1="330.1585" y1="325.4174" x2="443.6489" y2="325.4174"></line> <circle fill="#2079C3" stroke="#162020" stroke-width="1.25" stroke-miterlimit="10" cx="181.4693" cy="224.8987" r="71.8818"></circle> <circle fill="#FFFFFF" stroke="#162020" stroke-width="1.25" stroke-miterlimit="10" cx="181.4693" cy="224.8987" r="57.2653"></circle> <line fill="none" stroke="#162020" stroke-width="1.25" stroke-linecap="round" stroke-linejoin="round" stroke-miterlimit="10" x1="237.9891" y1="225.285" x2="227.1812" y2="225.285"></line> <line fill="none" stroke="#162020" stroke-width="1.25" stroke-linecap="round" stroke-linejoin="round" stroke-miterlimit="10" x1="138.2428" y1="225.285" x2="124.4186" y2="225.285"></line> <line fill="none" stroke="#162020" stroke-width="1.25" stroke-linecap="round" stroke-linejoin="round" stroke-miterlimit="10" x1="181.7065" y1="281.5676" x2="181.7065" y2="270.7597"></line> <line fill="none" stroke="#162020" stroke-width="1.25" stroke-linecap="round" stroke-linejoin="round" stroke-miterlimit="10" x1="181.7065" y1="181.8213" x2="181.7065" y2="167.9971"></line> <path fill="#A1D2F8" stroke="#162020" stroke-width="1.25" stroke-miterlimit="10" d="M181.6364,167.8428 c-32.0901,0-57.3415,26.0141-57.3415,58.1042h57.3415V167.8428"></path> <g> <g> <path fill="none" stroke="#000000" stroke-width="1.25" stroke-linecap="round" stroke-linejoin="round" d="M272.7391,230.514 c-0.0457,0.8345-0.1025,1.666-0.1704,2.4945"></path> <path fill="none" stroke="#000000" stroke-width="1.25" stroke-linecap="round" stroke-linejoin="round" stroke-dasharray="4.9493,4.9493" d=" M272.0314,237.9294c-6.0906,44.5743-44.3157,78.918-90.5621,78.918c-50.4835,0-91.4083-40.9249-91.4083-91.4083 c0-48.8148,38.2643-88.6926,86.435-91.2753"></path> <path fill="none" stroke="#000000" stroke-width="1.25" stroke-linecap="round" stroke-linejoin="round" d="M178.9691,134.0643 c0.8307-0.0223,1.6641-0.0335,2.5002-0.0335"></path> </g> </g> <polyline fill="none" stroke="#000000" stroke-width="1.25" stroke-linecap="round" stroke-linejoin="round" stroke-miterlimit="10" points=" 171.3512,145.0632 182.9159,134.1355 171.5683,122.7852 "></polyline> <g> <line fill="#2079C3" stroke="#162020" stroke-width="1.25" stroke-linecap="round" stroke-linejoin="round" stroke-miterlimit="10" x1="199.9859" y1="208.1476" x2="186.8005" y2="221.333"></line> <line fill="#2079C3" stroke="#162020" stroke-width="1.25" stroke-linecap="round" stroke-linejoin="round" stroke-miterlimit="10" x1="207.2121" y1="250.9309" x2="186.2618" y2="229.139"></line> <circle fill="#2079C3" stroke="#162020" stroke-width="1.25" stroke-miterlimit="10" cx="181.7888" cy="225.1435" r="7.1705"></circle> </g> <path fill="#FFFFFF" stroke="#162020" stroke-width="1.25" stroke-miterlimit="10" d="M665.9354,299.8369H550.0958 c-8.7289,0-15.805-7.0761-15.805-15.805V168.1922c0-8.7289,7.0761-15.805,15.805-15.805h115.8397 c8.7289,0,15.805,7.0761,15.805,15.805v115.8397C681.7404,292.7608,674.6643,299.8369,665.9354,299.8369z"></path> <g> <rect x="635.0257" y="207.5095" transform="matrix(-1 -1.224647e-16 1.224647e-16 -1 1299.1128 444.0804)" fill="none" stroke="#000000" stroke-width="1.25" stroke-linecap="round" stroke-linejoin="round" stroke-miterlimit="10" stroke-dasharray="5.1733" width="29.0614" height="29.0614"></rect> <rect x="635.0257" y="249.1938" transform="matrix(-1 -1.224647e-16 1.224647e-16 -1 1299.1128 527.449)" fill="#A1D2F8" stroke="#162020" stroke-width="1.25" stroke-miterlimit="10" width="29.0614" height="29.0614"></rect> <rect x="593.7379" y="207.5095" transform="matrix(-1 -1.224647e-16 1.224647e-16 -1 1216.5372 444.0804)" fill="#A1D2F8" stroke="#162020" stroke-width="1.25" stroke-miterlimit="10" width="29.0614" height="29.0614"></rect> <rect x="593.7379" y="249.1938" transform="matrix(-1 -1.224647e-16 1.224647e-16 -1 1216.5372 527.449)" fill="none" stroke="#000000" stroke-width="1.25" stroke-linecap="round" stroke-linejoin="round" stroke-miterlimit="10" stroke-dasharray="5.1733" width="29.0614" height="29.0614"></rect> <rect x="553.4824" y="207.5095" transform="matrix(-1 -1.224647e-16 1.224647e-16 -1 1136.0261 444.0804)" fill="none" stroke="#000000" stroke-width="1.25" stroke-linecap="round" stroke-linejoin="round" stroke-miterlimit="10" stroke-dasharray="5.1733" width="29.0614" height="29.0614"></rect> <rect x="553.4824" y="249.1938" transform="matrix(-1 -1.224647e-16 1.224647e-16 -1 1136.0261 527.449)" fill="#A1D2F8" stroke="#162020" stroke-width="1.25" stroke-miterlimit="10" width="29.0614" height="29.0614"></rect> </g> <path fill="#2079C3" stroke="#162020" stroke-width="1.25" stroke-miterlimit="10" d="M681.7404,188.6966H534.2908v-23.8048 c0-6.9061,5.5984-12.5046,12.5046-12.5046h122.4405c6.9061,0,12.5046,5.5985,12.5046,12.5046V188.6966z"></path> <path fill="#A1D2F8" stroke="#162020" stroke-width="1.25" stroke-miterlimit="10" d="M560.3832,164.59v-19.371 c0-3.2401,2.6266-5.8667,5.8667-5.8667l0,0c3.2401,0,5.8666,2.6266,5.8666,5.8667v19.371c0,3.2401-2.6266,5.8667-5.8666,5.8667l0,0 C563.0098,170.4567,560.3832,167.8301,560.3832,164.59z"></path> <path fill="#A1D2F8" stroke="#162020" stroke-width="1.25" stroke-miterlimit="10" d="M644.633,164.59v-19.371 c0-3.2401,2.6266-5.8667,5.8666-5.8667l0,0c3.2401,0,5.8667,2.6266,5.8667,5.8667v19.371c0,3.2401-2.6266,5.8667-5.8667,5.8667l0,0 C647.2596,170.4567,644.633,167.8301,644.633,164.59z"></path> <path fill="#FFFFFF" d="M390.0188,246.4111c22.906,0,35.3375-18.9924,35.3375-35.3374c0-0.5755,0-1.0359,0-1.6115 c2.4172-1.7266,4.4891-3.9136,6.2157-6.4459c-2.3021,1.0359-4.7194,1.6115-7.1366,1.9568 c2.6474-1.6115,4.6042-4.0287,5.5251-6.9063c-2.4172,1.4964-5.0646,2.4172-7.9423,2.9928 c-4.7193-5.0647-12.5465-5.2949-17.6112-0.5755c-2.5323,2.3021-3.9136,5.6402-3.9136,9.0934c0,0.9209,0.1151,1.9568,0.3453,2.8776 c-10.0142-0.4604-19.3378-5.1798-25.6686-13.0069c-3.338,5.6402-1.6115,13.0069,3.7985,16.5752 c-1.9568,0-3.9136-0.5755-5.6402-1.6115v0.1151c0,5.8704,4.1438,11.0502,10.0142,12.2012c-1.0359,0.3453-2.187,0.4604-3.338,0.4604 c-0.8058,0-1.4964-0.1151-2.3021-0.2302c1.6115,5.0647,6.3308,8.5178,11.6257,8.6329c-5.1798,4.0287-11.8559,5.8704-18.4169,5.1798 C376.7816,244.4543,383.3427,246.4111,390.0188,246.4111"></path> </g> <g id="Safe_Zone"> </g> </svg>