<?xml version="1.0" encoding="utf-8"?>
<!-- Generator: Adobe Illustrator 26.4.0, SVG Export Plug-In . SVG Version: 6.00 Build 0)  -->
<svg version="1.1" id="Illustration" xmlns="http://www.w3.org/2000/svg" xmlns:xlink="http://www.w3.org/1999/xlink" x="0px"
	 y="0px" viewBox="0 0 3648 2800" style="enable-background:new 0 0 3648 2800;" xml:space="preserve">
<style type="text/css">
	.st0{fill:url(#SVGID_1_);}
	.st1{opacity:0.3;}
	.st2{fill:#21B2E7;}
	.st3{fill:#B6E6F7;}
	.st4{fill:url(#SVGID_00000152961757307756198470000012294093124697563274_);}
	.st5{opacity:0.59;fill:#FFFFFF;}
	.st6{fill:url(#SVGID_00000172420831159798642180000015088593693140340610_);}
	.st7{fill:url(#SVGID_00000005978289224732853660000003351909967534709931_);}
	.st8{fill:url(#SVGID_00000181784488324705590500000002968341374958363805_);}
	.st9{fill:url(#SVGID_00000108274843687596076990000013255340480930931644_);}
	.st10{fill:url(#SVGID_00000064337996033906271030000011981213424042900373_);}
	.st11{fill:#EB8E51;}
	.st12{fill:url(#SVGID_00000083058928611352803390000000622339620829420956_);}
	.st13{fill:url(#SVGID_00000182526672014999621830000016980416465978120869_);}
	.st14{fill:url(#SVGID_00000137133080099717809830000007225157620919934889_);}
	.st15{fill:url(#SVGID_00000142875546651646030790000000882563757074841790_);}
	.st16{fill:url(#SVGID_00000073694777057902562950000012115321172442743701_);}
	.st17{fill:url(#SVGID_00000133524988192811419930000008762854569727705749_);}
	.st18{fill:url(#SVGID_00000076599415938130653930000005438423497563987903_);}
	.st19{fill:url(#SVGID_00000150072897948989044530000018362094703056353181_);}
	.st20{fill:url(#SVGID_00000162324091448690296080000010750319195096535185_);}
	.st21{fill:#FFFFFF;}
	.st22{fill:url(#SVGID_00000123427298095504800440000001344098913693268631_);}
	.st23{fill:url(#SVGID_00000053514087772407416170000005374654150802768256_);}
	.st24{fill:url(#SVGID_00000103231126569487721830000009474243084598294673_);}
	.st25{fill:url(#SVGID_00000088823398291673899460000013367301383840188819_);}
	.st26{fill:url(#SVGID_00000049913218345362322320000011419882646406469310_);}
	.st27{fill:url(#SVGID_00000091004066804942115220000010579454262547109792_);}
	.st28{fill:url(#SVGID_00000076592790309416891230000011111531090760480697_);}
	.st29{fill:url(#SVGID_00000155114803404988793900000003245212354782834085_);}
	.st30{fill:url(#SVGID_00000154425918108416490030000012648442844180266646_);}
	.st31{fill:url(#SVGID_00000062173231832555144010000005716561708807081358_);}
	.st32{fill:url(#SVGID_00000183934300757644128830000008976420567297367478_);}
	.st33{fill:url(#SVGID_00000158739303058682907770000009799432327382293182_);}
	.st34{fill:url(#SVGID_00000096046694066405651310000008546008051817331621_);}
	.st35{fill:url(#SVGID_00000150069694047336443490000014437926942918420376_);}
	.st36{fill:url(#SVGID_00000065076252028478740330000016254074538222352267_);}
	.st37{fill:url(#SVGID_00000030461093448034849480000000028466173892877452_);}
	.st38{fill:url(#SVGID_00000036209899817169998200000007916842394426922141_);}
	.st39{fill:url(#SVGID_00000148636376542590842420000000102401656274865053_);}
	.st40{fill:url(#SVGID_00000098220917316339410540000002952198862614579367_);}
	.st41{fill:url(#SVGID_00000011743601115758425390000002246050617816257981_);}
	.st42{fill:url(#SVGID_00000094594994019271232020000014027885181358700195_);}
	.st43{fill:url(#SVGID_00000140729963511776974720000004415595524707102594_);}
	.st44{fill:url(#SVGID_00000099649703895871640260000014614844484593692347_);}
	.st45{opacity:0.53;fill:#FFFFFF;}
	.st46{fill:url(#SVGID_00000013180265399510649390000016136348755365412278_);}
	.st47{fill:url(#SVGID_00000009584594220639730670000009370056554772657042_);}
	.st48{fill:url(#SVGID_00000153690139987865751410000016602329446904947886_);}
	.st49{fill:url(#SVGID_00000125596371368898248670000012682745293153118895_);}
	.st50{fill:url(#SVGID_00000117653421617098530350000017068597513880253608_);}
	.st51{fill:url(#SVGID_00000044149467977255767710000011194567149887825844_);}
	.st52{fill:url(#SVGID_00000165941091801659599860000016322059273637829044_);}
	.st53{fill:url(#SVGID_00000041973770997733208230000016106917505633790082_);}
	.st54{fill:url(#SVGID_00000021092146897479313860000001645830800082647699_);}
	.st55{fill:url(#SVGID_00000116215509358110251070000002525979649439947435_);}
	.st56{fill:url(#SVGID_00000064337014279497767220000004053908464524967089_);}
	.st57{fill:url(#SVGID_00000008854162085442870920000012142547733544235189_);}
	.st58{fill:url(#SVGID_00000136391568755612880120000014369106702731428031_);}
	.st59{fill:url(#SVGID_00000044154313394823246080000005688055693282823574_);}
	.st60{fill:url(#SVGID_00000015317426080448752960000010320051052005090979_);}
	.st61{fill:url(#SVGID_00000108283525363591646600000001534363221739997063_);}
	.st62{fill:url(#SVGID_00000151526182668397266780000015375303753642098847_);}
	.st63{fill:url(#SVGID_00000163052399129444528410000012241132104874435981_);}
</style>
<g>
	<linearGradient id="SVGID_1_" gradientUnits="userSpaceOnUse" x1="3805.9919" y1="3921.2581" x2="999.4698" y2="435.7337">
		<stop  offset="0" style="stop-color:#B6E6F7"/>
		<stop  offset="1" style="stop-color:#D4F1F9"/>
	</linearGradient>
	<path class="st0" d="M3225.1,2403.5c-74.9,59.8-145.8,98.4-201.8,128.9c-658.3,358.4-1437.2,253.9-1602.7,228.4
		c-244.4-37.7-717-110.5-1058.6-415.3c-516.8-461.2-436.4-1187.7-35.5-1667.3c73.3-87.7,460.7-574.6,1248-652.7
		C2051-21.8,2606.4,73.5,3008.6,329.2C3852.9,865.8,3792.8,1950,3225.1,2403.5z"/>
	<g>
		<g>
			<g class="st1">
				<path class="st2" d="M1347.7,320.3c-5.4,1.3-10.9-2-12.2-7.4c-2.6-10.5-5.7-21.1-9.2-31.5c-1.8-5.2,1-10.9,6.1-12.8
					c0.1,0,0.1,0,0.2-0.1c5.3-1.8,11,1,12.8,6.3c3.7,10.9,6.9,22,9.7,33.1c1.3,5.1-1.6,10.2-6.4,11.9
					C1348.4,320.1,1348.1,320.2,1347.7,320.3z M1305.8,232.2c-4.9-9.8-10.2-19.4-15.9-28.7c-2.9-4.8-1.4-11,3.4-13.9
					c4.8-2.9,11-1.4,13.9,3.4c6,9.7,11.6,19.9,16.7,30.2c2.5,5,0.5,11.1-4.5,13.6c-0.4,0.2-0.7,0.3-1.1,0.5
					C1313.5,239,1308.1,236.9,1305.8,232.2z M1259,160.2c-6.9-8.4-14.3-16.6-21.9-24.4c-3.9-4-3.8-10.4,0.2-14.3
					c4-3.9,10.4-3.8,14.3,0.2c8,8.2,15.8,16.8,23,25.7c3.5,4.3,2.9,10.7-1.4,14.2c-0.9,0.8-1.9,1.3-3,1.7
					C1266.4,164.7,1261.8,163.6,1259,160.2z M1197.4,100.4c-8.6-6.7-17.6-13-26.8-18.9c-4.7-3-6.1-9.3-3-14c3-4.7,9.3-6.1,14-3
					c9.6,6.2,19.1,12.9,28.2,19.9c4.4,3.4,5.2,9.8,1.8,14.2c-1.2,1.6-2.8,2.7-4.6,3.3C1203.8,103.1,1200.2,102.6,1197.4,100.4z
					 M1123.9,55.9c-9.9-4.6-20.1-8.8-30.3-12.5c-5.3-1.9-8-7.7-6-13c1.9-5.3,7.7-8,13-6c10.8,3.9,21.5,8.3,31.9,13.2
					c5.1,2.3,7.3,8.4,4.9,13.4c-1.2,2.6-3.3,4.4-5.8,5.3C1129.2,57.1,1126.4,57,1123.9,55.9z M1042.5,28.7
					c-10.6-2.3-21.5-4.1-32.3-5.5c-5.5-0.7-9.5-5.8-8.8-11.3c0.7-5.5,5.8-9.5,11.3-8.8c11.4,1.4,22.8,3.4,34,5.8
					c5.5,1.2,8.9,6.5,7.8,12c-0.8,3.6-3.3,6.3-6.5,7.4C1046.3,28.9,1044.4,29.1,1042.5,28.7z M680.3,128.9c-3.9-4-3.8-10.4,0.2-14.3
					c8.2-8,16.9-15.7,25.7-23c4.3-3.5,10.7-2.9,14.2,1.4c3.5,4.3,2.9,10.7-1.4,14.2c-8.4,6.9-16.7,14.3-24.4,21.8
					c-1.1,1-2.3,1.8-3.6,2.3C687.4,132.6,683.2,131.8,680.3,128.9z M957,20.2c-10.9,0.1-21.9,0.8-32.7,1.9
					c-5.6,0.6-10.5-3.5-11.1-9.1c-0.6-5.6,3.5-10.5,9.1-11.1c11.4-1.1,23-1.8,34.4-2c5.6-0.1,10.2,4.4,10.3,10
					c0.1,4.4-2.7,8.2-6.7,9.7C959.3,20,958.2,20.2,957,20.2z M748.6,73.1c-2.9-4.8-1.4-11,3.4-13.9c9.8-5.9,19.9-11.6,30.2-16.7
					c5-2.5,11.1-0.4,13.6,4.6c2.5,5,0.5,11.1-4.6,13.6c-9.8,4.9-19.4,10.2-28.7,15.8c-0.6,0.4-1.2,0.6-1.8,0.9
					C756.2,78.9,751.1,77.2,748.6,73.1z M871.9,31.1c-10.6,2.6-21.2,5.6-31.5,9.1c-5.3,1.8-11-1.1-12.8-6.4
					c-1.8-5.2,1-10.9,6.2-12.7c0.1,0,0.1,0,0.2-0.1c10.9-3.7,22-6.9,33.1-9.6c5.4-1.3,10.9,2,12.2,7.4c1.2,5.1-1.6,10.2-6.4,11.9
					C872.6,30.9,872.2,31,871.9,31.1z"/>
				<path class="st2" d="M644.8,185.3c1.9-0.7,3.6-1.9,4.8-3.7c3-4.3,6.2-8.5,9.4-12.7c3.4-4.4,2.6-10.8-1.8-14.2
					c-4.4-3.4-10.8-2.6-14.2,1.8c-3.4,4.4-6.7,8.9-9.9,13.3c-3.2,4.6-2.2,10.9,2.4,14.1C638.3,186,641.8,186.4,644.8,185.3z"/>
			</g>
			<g class="st1">
				<path class="st2" d="M578.6,486.6c4.6-1.7,7.4-6.4,6.5-11.4c-1-5.1-1.8-10.4-2.6-15.5c-0.8-5.5-6-9.4-11.5-8.5
					c-5.6,0.8-9.4,6-8.5,11.5c0.8,5.5,1.7,11,2.7,16.4c1,5.5,6.3,9.1,11.8,8.1C577.6,487,578.1,486.8,578.6,486.6z"/>
				<path class="st2" d="M1080.2,790.9c-5.3,1.6-11-1.4-12.6-6.7c-1.6-5.3,1.4-11,6.7-12.6c10.2-3.1,20.4-6.7,30.4-10.7
					c5.2-2.1,11.1,0.5,13.1,5.7c2.1,5.2-0.5,11.1-5.7,13.1c-4.4,1.7-8.7,3.4-13.1,5C1092.9,786.8,1086.5,788.9,1080.2,790.9z
					 M1148.2,751.9c-2.8-4.9-1-11,3.8-13.8c9.3-5.3,18.5-11,27.4-17.1c4.6-3.2,10.9-2,14.1,2.7c3.1,4.6,2,10.9-2.7,14.1
					c-9.3,6.4-19,12.4-28.8,18c-0.5,0.3-1,0.5-1.6,0.7C1155.8,758.1,1150.6,756.3,1148.2,751.9z M1026.5,803.3
					c-11.1,1.8-22.5,3.1-33.7,4c-5.6,0.4-10.4-3.8-10.9-9.3c-0.4-5.6,3.8-10.4,9.3-10.8c10.7-0.8,21.5-2.1,32-3.8
					c5.5-0.9,10.7,2.9,11.6,8.4c0.8,4.9-2.1,9.5-6.5,11.1C1027.8,803.1,1027.2,803.2,1026.5,803.3z M1219.8,702.9
					c-3.8-4.1-3.4-10.5,0.7-14.3c7.9-7.2,15.7-14.8,23-22.7c3.8-4.1,10.2-4.3,14.3-0.5c4.1,3.8,4.3,10.2,0.5,14.3
					c-7.7,8.3-15.8,16.3-24.2,23.9c-1,0.9-2.2,1.6-3.4,2C1227,707,1222.6,706.1,1219.8,702.9z M937.7,807.7
					c-11.2-0.7-22.6-1.9-33.8-3.5c-5.5-0.8-9.3-6-8.5-11.5c0.8-5.5,6-9.4,11.5-8.5c10.6,1.6,21.4,2.7,32.1,3.4
					c5.6,0.3,9.8,5.2,9.5,10.7c-0.3,4.2-3,7.6-6.7,8.9C940.5,807.5,939.1,807.8,937.7,807.7z M850.1,792.4
					c-10.8-3.1-21.7-6.8-32.2-10.8c-5.2-2-7.8-7.9-5.8-13.1c2-5.2,7.9-7.8,13.1-5.8c10,3.8,20.3,7.3,30.6,10.3
					c5.4,1.6,8.5,7.2,6.9,12.5c-0.9,3.2-3.4,5.6-6.3,6.7C854.4,792.9,852.2,793,850.1,792.4z M767.9,758.4
					c-9.9-5.4-19.7-11.3-29.1-17.6c-4.7-3.1-5.9-9.4-2.8-14c3.1-4.7,9.4-5.9,14-2.8c8.9,5.9,18.2,11.5,27.6,16.7
					c4.9,2.7,6.7,8.8,4,13.7c-1.2,2.3-3.2,3.8-5.4,4.7C773.6,760,770.5,759.9,767.9,758.4z M695.1,707.3
					c-8.5-7.5-16.7-15.4-24.5-23.5c-3.9-4-3.7-10.4,0.3-14.3c4-3.9,10.4-3.7,14.3,0.3c7.4,7.7,15.2,15.2,23.3,22.3
					c4.2,3.7,4.6,10.1,0.9,14.3c-1.2,1.3-2.6,2.3-4.2,2.8C701.8,710.5,697.9,709.8,695.1,707.3z M635.2,641.4
					c-6.6-9.1-12.9-18.6-18.7-28.3c-2.9-4.8-1.3-11,3.5-13.9c4.8-2.9,11-1.3,13.9,3.4c5.5,9.2,11.5,18.2,17.8,26.9
					c3.3,4.5,2.3,10.9-2.3,14.1c-0.8,0.6-1.6,1-2.5,1.3C642.7,646.5,637.9,645.2,635.2,641.4z M591.3,564.1
					c-3.3-7.6-6.4-15.4-9.2-23.2c-1-2.8-2-5.6-2.9-8.5c-1.8-5.3,1-11.1,6.4-12.8c5.3-1.8,11,1.1,12.8,6.4c0.9,2.7,1.8,5.4,2.8,8.1
					c2.7,7.4,5.6,14.8,8.7,22.1c2.2,5.1-0.2,11.1-5.3,13.3c-0.2,0.1-0.4,0.2-0.6,0.2C599,571.4,593.4,569,591.3,564.1z"/>
				<path class="st2" d="M1288.3,640.4c1.9-0.7,3.6-1.9,4.8-3.7c3.1-4.5,6.3-9.1,9.3-13.8c3-4.7,1.7-11-3-14c-4.7-3-11-1.7-14,3
					c-2.8,4.4-5.8,8.8-8.8,13.1c-3.2,4.6-2.1,10.9,2.5,14.1C1281.8,641.1,1285.3,641.5,1288.3,640.4z"/>
			</g>
			<g>
				<path class="st2" d="M1258.6,469.5c0.7-1.9,0.1-4-1.5-5.3l-45.1-35.8c2.9-26.7,1.6-54.1-4.4-81.1l40.9-40.4
					c1.4-1.4,1.8-3.6,0.9-5.4l-29.8-62.3c-0.9-1.8-2.8-2.9-4.8-2.7l-57.1,6.6c-17.3-21.6-37.8-39.8-60.5-54.2l0.4-57.6
					c0-2-1.3-3.8-3.2-4.5l-65.1-22.9c-1.9-0.7-4-0.1-5.3,1.5l-35.8,45.1c-26.7-2.9-54.1-1.6-81.1,4.4L866.8,114
					c-1.4-1.4-3.6-1.8-5.4-0.9l-62.3,29.8c-1.8,0.9-2.9,2.8-2.7,4.8l6.6,57.1c-21.6,17.3-39.8,37.8-54.2,60.5l-57.6-0.4
					c-2,0-3.8,1.3-4.5,3.2l-22.9,65.1c-0.7,1.9-0.1,4,1.5,5.3l45.1,35.8c-2.9,26.7-1.6,54.1,4.4,81.1l-40.9,40.4
					c-1.4,1.4-1.8,3.6-0.9,5.4l29.8,62.3c0.9,1.8,2.8,2.9,4.8,2.7l57.1-6.6c17.3,21.6,37.8,39.8,60.5,54.2l-0.4,57.6
					c0,2,1.3,3.8,3.2,4.5l65.1,22.9c1.9,0.7,4,0.1,5.3-1.5l35.8-45.1c26.7,2.9,54.1,1.6,81.1-4.4l40.4,40.9c1.4,1.4,3.6,1.8,5.4,0.9
					l62.3-29.8c1.8-0.9,2.9-2.8,2.7-4.8l-6.6-57.1c21.6-17.3,39.8-37.8,54.2-60.5l57.6,0.4c2,0,3.8-1.3,4.5-3.2L1258.6,469.5z"/>
				<g>
					<path class="st3" d="M975,469.4c-37.5,7.6-74.2-16.8-81.8-54.3c-3.7-18.2-0.1-36.7,10.2-52.1c10.2-15.4,25.9-26,44.1-29.6
						c37.5-7.6,74.2,16.8,81.8,54.3c6.9,34.1-12.6,67.6-44.5,79C981.6,467.8,978.3,468.7,975,469.4z M916.9,371.9
						c-7.9,11.8-10.6,26-7.8,40c5.8,28.8,33.9,47.4,62.7,41.6c28.8-5.8,47.4-33.9,41.6-62.7c-5.8-28.8-33.9-47.4-62.7-41.6
						c-2.6,0.5-5.1,1.2-7.6,2.1C932.4,355.2,923.3,362.3,916.9,371.9z"/>
				</g>
				<path class="st3" d="M1017.4,561.4c5.5-2,10.9-4.2,16.2-6.8l0,0c1.7-0.8,3.3-1.6,5-2.5c8.1-4.2,15.9-9.1,23.2-14.5
					c0.1-0.1,0.2-0.1,0.3-0.2c0.3-0.2,0.6-0.4,0.8-0.6c0.5-0.4,1.1-0.8,1.6-1.2c1.4-1.1,1.9-3,1.3-4.6c-0.1-0.4-0.3-0.8-0.6-1.1
					c-1.4-1.8-3.9-2.1-5.7-0.7c-9.1,7-19,13.2-29.5,18.2c-51.9,24.9-110.7,19.6-156.3-8.7c-25.4-15.8-46.7-38.7-60.5-67.6
					c-2.4-5.1-4.6-10.2-6.5-15.4c-12.6-35.1-12.8-73.1-0.3-108.8c14.4-41,43.9-73.8,83.1-92.6c80.9-38.7,178.1-4.5,216.8,76.4
					c2.4,5,4.5,10.1,6.4,15.2c8.1,22.4,11.1,46.3,8.9,70c-0.1,0.6,0,1.2,0.2,1.7c0.5,1.4,1.8,2.5,3.4,2.7c2.2,0.2,4.2-1.4,4.4-3.7
					c2.3-24.9-0.9-50-9.4-73.5c-2-5.4-4.2-10.8-6.7-16c-40.7-84.9-142.8-120.8-227.6-80.2c-41.1,19.7-72.1,54.2-87.2,97.2
					c-13.2,37.4-13,77.4,0.3,114.2c2,5.5,4.2,10.9,6.8,16.2c19.7,41.1,54.2,72.1,97.2,87.2C940.6,574.9,980.6,574.7,1017.4,561.4z"
					/>
			</g>
		</g>
		<g>
			<g class="st1">
				<path class="st2" d="M1764,453.8c2.5-0.9,4.3-3.4,4.1-6.3c-0.3-5.3-0.8-10.7-1.4-15.9c-0.4-3.4-3.5-5.9-7-5.5
					c-3.4,0.4-5.9,3.5-5.5,7c0.6,5,1.1,10.1,1.4,15.2c0.2,3.4,3.2,6.1,6.6,5.9C1762.8,454.1,1763.4,454,1764,453.8z"/>
				<path class="st2" d="M1756.1,406.4c-3.3,0.8-6.7-1.2-7.6-4.6c-2.1-8.5-4.7-16.9-7.6-25.1c-0.6-1.7-1.3-3.5-1.9-5.2
					c-1.2-3.2,0.4-6.8,3.6-8.1c3.1-1,6.8,0.4,8.1,3.6c0.7,1.8,1.4,3.6,2,5.4c3.1,8.6,5.8,17.4,8,26.3c0.8,3.1-1,6.3-3.9,7.4
					C1756.5,406.3,1756.3,406.4,1756.1,406.4z M1725.8,342.7c-5-9.3-10.5-18.4-16.6-27c-2-2.8-1.3-6.7,1.5-8.7
					c2.8-2,6.7-1.3,8.7,1.5c6.3,9,12.2,18.6,17.4,28.4c1.6,3,0.5,6.8-2.6,8.5c-0.3,0.1-0.5,0.3-0.8,0.4
					C1730.5,346.7,1727.2,345.5,1725.8,342.7z M1689.4,290.9c-7.1-7.8-14.7-15.3-22.7-22.1c-2.6-2.2-2.9-6.2-0.7-8.8
					c2.3-2.6,6.2-2.9,8.8-0.7c8.4,7.2,16.4,15,23.8,23.2c2.3,2.6,2.1,6.5-0.4,8.8c-0.6,0.6-1.3,1-2.1,1.2
					C1693.8,293.4,1691.1,292.8,1689.4,290.9z M1641.3,249.6c-8.8-5.8-18-11.2-27.5-15.9c-3.1-1.5-4.3-5.3-2.8-8.4
					c1.5-3.1,5.3-4.3,8.4-2.8c9.9,4.9,19.6,10.6,28.8,16.7c2.9,1.9,3.7,5.8,1.7,8.7c-0.8,1.2-1.9,2-3.1,2.4
					C1645.1,250.9,1643.1,250.7,1641.3,249.6z M1584.7,221.2c-9.9-3.5-20.2-6.5-30.5-8.8c-3.4-0.7-5.5-4.1-4.7-7.5
					c0.7-3.4,4.1-5.5,7.5-4.7c10.8,2.4,21.5,5.5,32,9.2c3.3,1.2,5,4.7,3.8,8c-0.7,1.8-2.1,3.2-3.8,3.8
					C1587.6,221.7,1586.1,221.7,1584.7,221.2z M1522.9,207.5c-10.5-1-21.2-1.4-31.7-1.1c-3.4,0.1-6.3-2.6-6.4-6.1
					c-0.1-3.4,2.6-6.3,6.1-6.4c11-0.3,22.2,0.1,33.2,1.1c3.4,0.3,6,3.4,5.6,6.8c-0.2,2.5-1.9,4.5-4.1,5.3
					C1524.7,207.5,1523.8,207.6,1522.9,207.5z M1459.6,209.3c-10.4,1.6-20.8,3.9-31,6.8c-3.3,0.9-6.8-1-7.7-4.3
					c-0.9-3.3,1-6.7,4.3-7.7c10.7-3,21.6-5.4,32.5-7.1c3.4-0.5,6.6,1.8,7.1,5.2c0.5,3-1.3,5.8-4.1,6.8
					C1460.4,209.1,1460,209.2,1459.6,209.3z M1361.7,238.4c-1.7-3-0.7-6.8,2.3-8.5c8.3-4.8,17-9.2,25.8-13c1.3-0.6,2.7-1.2,4-1.7
					c3.1-1.4,6.8,0.2,8.2,3.3c1.3,3.2-0.2,6.8-3.3,8.2c-1.3,0.5-2.5,1.1-3.8,1.6c-8.4,3.7-16.7,7.9-24.6,12.4
					c-0.3,0.2-0.7,0.3-1,0.5C1366.4,242.2,1363.2,241,1361.7,238.4z"/>
			</g>
			<g class="st1">
				<path class="st2" d="M1586.5,719c-10.3,3.6-20.9,6.5-31.5,8.8c-3.4,0.7-6.7-1.4-7.4-4.8c-0.7-3.4,1.5-6.7,4.8-7.4
					c10.1-2.2,20.2-5,30.1-8.4c3.3-1.1,6.8,0.6,7.9,3.9C1591.5,714.3,1589.8,717.8,1586.5,719C1586.6,719,1586.6,719,1586.5,719z
					 M1608.4,703.6c-1.5-3.1-0.2-6.8,2.9-8.4c9.3-4.5,18.5-9.7,27.2-15.3c2.9-1.9,6.8-1,8.6,1.9c1.9,2.9,1,6.8-1.9,8.6
					c-9.1,5.9-18.7,11.3-28.5,16.1c-0.2,0.1-0.4,0.2-0.6,0.3C1613.2,707.8,1609.8,706.5,1608.4,703.6z M1522.7,732.7
					c-10.9,1-21.9,1.3-32.7,0.9c-3.4-0.1-6.2-3-6-6.5c0.1-3.5,3-6.1,6.4-6c10.4,0.3,20.8,0,31.2-0.9c3.4-0.3,6.5,2.2,6.8,5.7
					c0.3,2.9-1.5,5.5-4.1,6.4C1523.7,732.6,1523.2,732.7,1522.7,732.7z M1662.9,670.2c-2.2-2.6-1.9-6.6,0.8-8.8
					c8-6.7,15.6-13.9,22.7-21.4c2.4-2.5,6.3-2.6,8.8-0.3c2.5,2.4,2.6,6.3,0.3,8.8c-7.4,7.9-15.4,15.5-23.8,22.5
					c-0.6,0.5-1.2,0.8-1.9,1.1C1667.4,673,1664.6,672.3,1662.9,670.2z M1457.4,730.6c-10.7-1.7-21.5-4-32-7
					c-3.3-0.9-5.3-4.4-4.3-7.7c0.9-3.3,4.4-5.3,7.7-4.3c10,2.8,20.2,5.1,30.5,6.6c3.4,0.5,5.7,3.7,5.2,7.1c-0.4,2.3-2,4.2-4.1,4.9
					C1459.5,730.6,1458.5,730.8,1457.4,730.6z M1394.5,712.9c-10.1-4.2-19.9-9.1-29.4-14.4c-3-1.7-4.1-5.5-2.3-8.5
					c1.7-3,5.5-4.1,8.5-2.4c9,5.1,18.4,9.7,28,13.7c3.2,1.3,4.7,5,3.4,8.2c-0.7,1.7-2.1,2.9-3.7,3.5
					C1397.6,713.5,1396,713.5,1394.5,712.9z M1337.7,680.6c-8.8-6.5-17.2-13.6-25.1-21.1c-2.5-2.4-2.6-6.3-0.2-8.8
					c2.4-2.5,6.3-2.6,8.8-0.2c7.5,7.1,15.6,13.9,23.9,20.1c2.8,2.1,3.4,6,1.3,8.7c-0.8,1-1.8,1.8-2.9,2.2
					C1341.6,682.1,1339.4,681.9,1337.7,680.6z"/>
				<path class="st2" d="M1713.6,625.3c1.1-0.4,2.2-1.1,2.9-2.2c3.2-4.3,6.2-8.8,9-13.2c1.9-2.9,1-6.8-1.9-8.6
					c-2.9-1.9-6.8-1-8.6,1.9c-2.7,4.2-5.6,8.4-8.6,12.6c-2,2.8-1.4,6.7,1.4,8.7C1709.6,625.7,1711.7,626,1713.6,625.3z"/>
			</g>
			<g>
				<path class="st2" d="M1696.7,507.5c0.4-1.3,0-2.7-1-3.5l-30.2-23.9c1.9-17.9,1.1-36.2-2.9-54.3l27.4-27c1-0.9,1.2-2.4,0.6-3.6
					l-20-41.7c-0.6-1.2-1.9-1.9-3.2-1.8l-38.2,4.4c-11.6-14.4-25.3-26.6-40.5-36.3l0.3-38.5c0-1.4-0.8-2.6-2.1-3l-43.6-15.3
					c-1.3-0.4-2.7,0-3.5,1l-23.9,30.2c-17.9-1.9-36.2-1.1-54.3,2.9l-27-27.4c-0.9-1-2.4-1.2-3.6-0.6l-41.7,20
					c-1.2,0.6-1.9,1.9-1.8,3.2l4.4,38.2c-14.4,11.6-26.6,25.3-36.3,40.5l-38.5-0.3c-1.3,0-2.6,0.8-3,2.1l-15.3,43.6
					c-0.4,1.3,0,2.7,1,3.5l30.2,23.9c-1.9,17.9-1.1,36.2,2.9,54.3l-27.4,27c-1,0.9-1.2,2.4-0.6,3.6l20,41.7c0.6,1.2,1.9,1.9,3.2,1.8
					l38.2-4.4c11.6,14.4,25.3,26.6,40.5,36.3l-0.3,38.5c0,1.3,0.8,2.6,2.1,3l43.6,15.3c1.3,0.4,2.7,0,3.5-1l23.9-30.2
					c17.9,1.9,36.2,1.1,54.3-2.9l27,27.4c0.9,1,2.4,1.2,3.6,0.6l41.7-20c1.2-0.6,1.9-1.9,1.8-3.2l-4.4-38.2
					c14.4-11.6,26.6-25.3,36.3-40.5l38.5,0.3c1.3,0,2.6-0.8,3-2.1L1696.7,507.5z"/>
				<g>
					<path class="st3" d="M1507.1,508.3c-12.4,2.5-25,0-35.5-6.9c-10.5-7-17.7-17.6-20.2-30c-5.2-25.5,11.4-50.5,37-55.7
						c25.6-5.2,50.5,11.4,55.7,37c2.5,12.4,0,25-6.9,35.5c-5.7,8.6-13.8,14.9-23.3,18.3C1511.7,507.2,1509.4,507.8,1507.1,508.3z
						 M1463.6,468.8c1.8,9.1,7.1,16.9,14.9,22.1c7.7,5.1,17,6.9,26.1,5.1l0,0c9.1-1.9,16.9-7.1,22.1-14.9c5.1-7.7,6.9-17,5.1-26.1
						c-3.8-18.8-22.2-31-41-27.2c-1.7,0.3-3.3,0.8-4.9,1.4C1470,435,1460.2,451.7,1463.6,468.8z"/>
				</g>
				<path class="st3" d="M1536.6,572.3c3.7-1.3,7.4-2.9,11-4.6c7.2-3.5,14.1-7.7,20.5-12.5c0.3-0.2,0.6-0.4,0.9-0.7
					c2.2-1.7,2.9-4.6,2.1-7.1c-0.2-0.6-0.5-1.2-0.9-1.7c-2.1-2.7-6-3.2-8.8-1.1c-5.9,4.6-12.3,8.5-19.1,11.8l0,0
					c-0.4,0.2-0.7,0.4-1.1,0.5c-16.1,7.5-33.4,10.7-50.6,9.7c-9.4-0.6-18.7-2.4-27.8-5.5c-0.1,0-0.1-0.1-0.2-0.1
					c-0.2-0.1-0.5-0.2-0.7-0.2c-26.5-9.3-47.8-28.4-59.9-53.8c-1.6-3.3-3-6.6-4.2-10c-8.2-22.7-8.3-47.3-0.2-70.4
					c9.3-26.5,28.4-47.8,53.8-59.9c25.3-12.1,53.9-13.7,80.4-4.4c26.5,9.3,47.8,28.4,59.9,53.8c1.5,3.2,2.9,6.5,4.1,9.9
					c5.2,14.5,7.2,30,5.8,45.3c-0.1,0.9,0,1.9,0.3,2.7c0.8,2.2,2.8,3.9,5.3,4.1c3.4,0.3,6.5-2.2,6.8-5.6c1.6-17.2-0.6-34.5-6.5-50.7
					c-1.3-3.7-2.9-7.4-4.6-11c-13.6-28.4-37.4-49.7-67.1-60.2c-29.7-10.4-61.6-8.7-90,4.9c-28.4,13.6-49.7,37.4-60.2,67.1
					c-9.1,25.8-9,53.4,0.2,78.8c1.4,3.8,2.9,7.5,4.7,11.2C1417,567.3,1480.6,592.5,1536.6,572.3z"/>
			</g>
		</g>
	</g>
	
		<linearGradient id="SVGID_00000180331316200607157550000002440668119695372928_" gradientUnits="userSpaceOnUse" x1="455.9999" y1="1529.3621" x2="3254" y2="1529.3621">
		<stop  offset="0" style="stop-color:#142750"/>
		<stop  offset="1" style="stop-color:#306CB3"/>
	</linearGradient>
	<path style="fill:url(#SVGID_00000180331316200607157550000002440668119695372928_);" d="M3223.5,2565h-2737
		c-16.9,0-30.5-13.7-30.5-30.5V524.3c0-16.9,13.7-30.5,30.5-30.5h2737c16.9,0,30.5,13.7,30.5,30.5v2010.2
		C3254,2551.3,3240.3,2565,3223.5,2565z"/>
	<path class="st2" d="M3065.6,2484.2H620.7c-56.8,0-102.9-46.1-102.9-102.9V661c0-56.8,46.1-102.9,102.9-102.9h2444.9
		c56.8,0,102.9,46.1,102.9,102.9v1720.3C3168.4,2438.2,3122.4,2484.2,3065.6,2484.2z"/>
	<path class="st3" d="M3038,2458.6H648.3c-56.8,0-102.9-46.1-102.9-102.9v-1646c0-56.8,46.1-102.9,102.9-102.9H3038
		c56.8,0,102.9,46.1,102.9,102.9v1646C3140.9,2412.5,3094.8,2458.6,3038,2458.6z"/>
	<path class="st5" d="M1375.5,2296.6H1345c-3.6,0-6.4-2.9-6.4-6.4V666c0-3.6,2.9-6.4,6.4-6.4h30.5c3.6,0,6.4,2.9,6.4,6.4v1624.2
		C1382,2293.8,1379.1,2296.6,1375.5,2296.6z"/>
	<path class="st5" d="M2295.9,2287.8h-30.5c-3.6,0-6.4-2.9-6.4-6.4V657.2c0-3.6,2.9-6.4,6.4-6.4h30.5c3.6,0,6.4,2.9,6.4,6.4v1624.2
		C2302.3,2284.9,2299.4,2287.8,2295.9,2287.8z"/>
	<g>
		<g>
			
				<linearGradient id="SVGID_00000003799509387088976510000018231300165910774182_" gradientUnits="userSpaceOnUse" x1="2857.4668" y1="314.3716" x2="2660.2869" y2="1722.3016">
				<stop  offset="0" style="stop-color:#21B2E7"/>
				<stop  offset="1" style="stop-color:#306CB3"/>
			</linearGradient>
			<path style="fill:url(#SVGID_00000003799509387088976510000018231300165910774182_);" d="M3081.6,1333.2h-676.4
				c-11.5,0-20.8-9.3-20.8-20.8V946.2c0-11.5,9.3-20.8,20.8-20.8h676.4c11.5,0,20.8,9.3,20.8,20.8v366.2
				C3102.3,1323.9,3093,1333.2,3081.6,1333.2z"/>
			<path class="st2" d="M3007.2,1315.9h-537.3c-38.7,0-70-31.4-70-70v-233.1c0-38.7,31.4-70,70-70h537.3c38.7,0,70,31.4,70,70v233.1
				C3077.2,1284.5,3045.9,1315.9,3007.2,1315.9z"/>
		</g>
		
			<linearGradient id="SVGID_00000038403574351592840560000014145875250093820829_" gradientUnits="userSpaceOnUse" x1="2715.5955" y1="1055.775" x2="3044.1794" y2="1055.775">
			<stop  offset="0" style="stop-color:#B6E6F7"/>
			<stop  offset="1" style="stop-color:#D4F1F9"/>
		</linearGradient>
		<path style="fill:url(#SVGID_00000038403574351592840560000014145875250093820829_);" d="M3038.7,1074.4h-317.5
			c-3,0-5.5-2.5-5.5-5.5v-26.2c0-3,2.5-5.5,5.5-5.5h317.5c3,0,5.5,2.5,5.5,5.5v26.2C3044.2,1071.9,3041.7,1074.4,3038.7,1074.4z"/>
		
			<linearGradient id="SVGID_00000150814704386899432020000009232058613993214879_" gradientUnits="userSpaceOnUse" x1="2715.5955" y1="1135.4875" x2="3044.1794" y2="1135.4875">
			<stop  offset="0" style="stop-color:#B6E6F7"/>
			<stop  offset="1" style="stop-color:#D4F1F9"/>
		</linearGradient>
		<path style="fill:url(#SVGID_00000150814704386899432020000009232058613993214879_);" d="M3038.7,1154.1h-317.5
			c-3,0-5.5-2.5-5.5-5.5v-26.2c0-3,2.5-5.5,5.5-5.5h317.5c3,0,5.5,2.5,5.5,5.5v26.2C3044.2,1151.6,3041.7,1154.1,3038.7,1154.1z"/>
		
			<linearGradient id="SVGID_00000055683490293960367970000008238586825983433629_" gradientUnits="userSpaceOnUse" x1="2715.5955" y1="1211.9504" x2="3044.1794" y2="1211.9504">
			<stop  offset="0" style="stop-color:#B6E6F7"/>
			<stop  offset="1" style="stop-color:#D4F1F9"/>
		</linearGradient>
		<path style="fill:url(#SVGID_00000055683490293960367970000008238586825983433629_);" d="M3038.7,1230.5h-317.5
			c-3,0-5.5-2.5-5.5-5.5v-26.2c0-3,2.5-5.5,5.5-5.5h317.5c3,0,5.5,2.5,5.5,5.5v26.2C3044.2,1228.1,3041.7,1230.5,3038.7,1230.5z"/>
		
			<linearGradient id="SVGID_00000013905772105131685280000017760247299748475565_" gradientUnits="userSpaceOnUse" x1="2443.8418" y1="1041.3091" x2="2582.302" y2="1041.3091">
			<stop  offset="0" style="stop-color:#B6E6F7"/>
			<stop  offset="1" style="stop-color:#D4F1F9"/>
		</linearGradient>
		<path style="fill:url(#SVGID_00000013905772105131685280000017760247299748475565_);" d="M2575,1099.2h-123.8
			c-4.1,0-7.3-3.3-7.3-7.3V990.8c0-4.1,3.3-7.3,7.3-7.3H2575c4.1,0,7.3,3.3,7.3,7.3v101.1C2582.3,1095.9,2579,1099.2,2575,1099.2z"
			/>
		<path class="st11" d="M2472.2,1037.2L2472.2,1037.2c5-2.9,11.5-1.2,14.3,3.9l13.3,23.9c1.3,2.4,4.8,2.2,5.9-0.3l33.1-73.6
			c1.6-3.7,7.1-2.4,7.1,1.6c-0.3,22.5-6.3,65.3-42.3,101.1c0,0-19.8-7.7-35.8-42.8C2465.5,1046,2467.4,1040,2472.2,1037.2z"/>
	</g>
	<g>
		<g>
			
				<linearGradient id="SVGID_00000018224335692309891320000014648263556831775889_" gradientUnits="userSpaceOnUse" x1="1963.517" y1="186.0756" x2="1766.3368" y2="1594.0056">
				<stop  offset="0" style="stop-color:#21B2E7"/>
				<stop  offset="1" style="stop-color:#306CB3"/>
			</linearGradient>
			<path style="fill:url(#SVGID_00000018224335692309891320000014648263556831775889_);" d="M2170.9,1324.2h-676.4
				c-11.5,0-20.8-9.3-20.8-20.8V937.1c0-11.5,9.3-20.8,20.8-20.8h676.4c11.5,0,20.8,9.3,20.8,20.8v366.2
				C2191.7,1314.9,2182.4,1324.2,2170.9,1324.2z"/>
			<path class="st2" d="M2096.6,1306.8h-537.3c-38.7,0-70-31.4-70-70v-233.1c0-38.7,31.4-70,70-70h537.3c38.7,0,70,31.4,70,70v233.1
				C2166.6,1275.5,2135.2,1306.8,2096.6,1306.8z"/>
		</g>
		
			<linearGradient id="SVGID_00000075874246809273820570000016506263469370688427_" gradientUnits="userSpaceOnUse" x1="1804.9421" y1="1046.7467" x2="2133.5261" y2="1046.7467">
			<stop  offset="0" style="stop-color:#B6E6F7"/>
			<stop  offset="1" style="stop-color:#D4F1F9"/>
		</linearGradient>
		<path style="fill:url(#SVGID_00000075874246809273820570000016506263469370688427_);" d="M2128,1065.3h-317.5
			c-3,0-5.5-2.5-5.5-5.5v-26.2c0-3,2.5-5.5,5.5-5.5H2128c3,0,5.5,2.5,5.5,5.5v26.2C2133.5,1062.9,2131.1,1065.3,2128,1065.3z"/>
		
			<linearGradient id="SVGID_00000150814115302335823560000018251245992301348502_" gradientUnits="userSpaceOnUse" x1="1804.9421" y1="1126.4592" x2="2133.5264" y2="1126.4592">
			<stop  offset="0" style="stop-color:#B6E6F7"/>
			<stop  offset="1" style="stop-color:#D4F1F9"/>
		</linearGradient>
		<path style="fill:url(#SVGID_00000150814115302335823560000018251245992301348502_);" d="M2128,1145.1l-317.5,0
			c-3,0-5.5-2.5-5.5-5.5v-26.2c0-3,2.5-5.5,5.5-5.5H2128c3,0,5.5,2.5,5.5,5.5l0,26.2C2133.5,1142.6,2131.1,1145.1,2128,1145.1z"/>
		
			<linearGradient id="SVGID_00000065771661033825957410000004714095863862306700_" gradientUnits="userSpaceOnUse" x1="1804.9421" y1="1202.9221" x2="2133.5261" y2="1202.9221">
			<stop  offset="0" style="stop-color:#B6E6F7"/>
			<stop  offset="1" style="stop-color:#D4F1F9"/>
		</linearGradient>
		<path style="fill:url(#SVGID_00000065771661033825957410000004714095863862306700_);" d="M2128,1221.5h-317.5
			c-3,0-5.5-2.5-5.5-5.5v-26.2c0-3,2.5-5.5,5.5-5.5H2128c3,0,5.5,2.5,5.5,5.5v26.2C2133.5,1219.1,2131.1,1221.5,2128,1221.5z"/>
		
			<linearGradient id="SVGID_00000067196684426391872360000005448055441937712820_" gradientUnits="userSpaceOnUse" x1="1533.1886" y1="1032.2808" x2="1671.6486" y2="1032.2808">
			<stop  offset="0" style="stop-color:#B6E6F7"/>
			<stop  offset="1" style="stop-color:#D4F1F9"/>
		</linearGradient>
		<path style="fill:url(#SVGID_00000067196684426391872360000005448055441937712820_);" d="M1664.3,1090.1h-123.8
			c-4.1,0-7.3-3.3-7.3-7.3V981.8c0-4.1,3.3-7.3,7.3-7.3h123.8c4.1,0,7.3,3.3,7.3,7.3v101.1
			C1671.6,1086.9,1668.4,1090.1,1664.3,1090.1z"/>
	</g>
	<g>
		<g>
			
				<linearGradient id="SVGID_00000121969189647382511680000012921811484620184983_" gradientUnits="userSpaceOnUse" x1="1910.5704" y1="1260.0082" x2="1590.4996" y2="2649.1191">
				<stop  offset="0" style="stop-color:#21B2E7"/>
				<stop  offset="1" style="stop-color:#306CB3"/>
			</linearGradient>
			<path style="fill:url(#SVGID_00000121969189647382511680000012921811484620184983_);" d="M2173,1792.9h-676.4
				c-11.5,0-20.8-9.3-20.8-20.8v-366.2c0-11.5,9.3-20.8,20.8-20.8H2173c11.5,0,20.8,9.3,20.8,20.8v366.2
				C2193.8,1783.6,2184.5,1792.9,2173,1792.9z"/>
			<path class="st2" d="M2098.6,1775.6h-537.3c-38.7,0-70-31.4-70-70v-233.1c0-38.7,31.4-70,70-70h537.3c38.7,0,70,31.4,70,70v233.1
				C2168.7,1744.2,2137.3,1775.6,2098.6,1775.6z"/>
		</g>
		
			<linearGradient id="SVGID_00000044856469054100064880000011423455523204163208_" gradientUnits="userSpaceOnUse" x1="1807.0308" y1="1515.4553" x2="2135.615" y2="1515.4553">
			<stop  offset="0" style="stop-color:#B6E6F7"/>
			<stop  offset="1" style="stop-color:#D4F1F9"/>
		</linearGradient>
		<path style="fill:url(#SVGID_00000044856469054100064880000011423455523204163208_);" d="M2130.1,1534.1h-317.5
			c-3,0-5.5-2.5-5.5-5.5v-26.2c0-3,2.5-5.5,5.5-5.5h317.5c3,0,5.5,2.5,5.5,5.5v26.2C2135.6,1531.6,2133.1,1534.1,2130.1,1534.1z"/>
		
			<linearGradient id="SVGID_00000110471916841174112610000005636309061106958499_" gradientUnits="userSpaceOnUse" x1="1807.0308" y1="1595.1676" x2="2135.615" y2="1595.1676">
			<stop  offset="0" style="stop-color:#B6E6F7"/>
			<stop  offset="1" style="stop-color:#D4F1F9"/>
		</linearGradient>
		<path style="fill:url(#SVGID_00000110471916841174112610000005636309061106958499_);" d="M2130.1,1613.8h-317.5
			c-3,0-5.5-2.5-5.5-5.5v-26.2c0-3,2.5-5.5,5.5-5.5h317.5c3,0,5.5,2.5,5.5,5.5v26.2C2135.6,1611.3,2133.1,1613.8,2130.1,1613.8z"/>
		
			<linearGradient id="SVGID_00000026853902198418140930000016253153314495034274_" gradientUnits="userSpaceOnUse" x1="1807.0308" y1="1671.6306" x2="2135.615" y2="1671.6306">
			<stop  offset="0" style="stop-color:#B6E6F7"/>
			<stop  offset="1" style="stop-color:#D4F1F9"/>
		</linearGradient>
		<path style="fill:url(#SVGID_00000026853902198418140930000016253153314495034274_);" d="M2130.1,1690.2h-317.5
			c-3,0-5.5-2.5-5.5-5.5v-26.2c0-3,2.5-5.5,5.5-5.5h317.5c3,0,5.5,2.5,5.5,5.5v26.2C2135.6,1687.8,2133.1,1690.2,2130.1,1690.2z"/>
		<path class="st21" d="M1666.4,1558.9h-123.8c-4.1,0-7.3-3.3-7.3-7.3v-101.1c0-4.1,3.3-7.3,7.3-7.3h123.8c4.1,0,7.3,3.3,7.3,7.3
			v101.1C1673.7,1555.6,1670.5,1558.9,1666.4,1558.9z"/>
	</g>
	<g>
		<g>
			
				<linearGradient id="SVGID_00000013179915070082113050000002013950438463728816_" gradientUnits="userSpaceOnUse" x1="1066.5564" y1="57.7382" x2="869.3763" y2="1465.6682">
				<stop  offset="0" style="stop-color:#21B2E7"/>
				<stop  offset="1" style="stop-color:#306CB3"/>
			</linearGradient>
			<path style="fill:url(#SVGID_00000013179915070082113050000002013950438463728816_);" d="M1259.3,1300.2H582.9
				c-11.5,0-20.8-9.3-20.8-20.8V913.2c0-11.5,9.3-20.8,20.8-20.8h676.4c11.5,0,20.8,9.3,20.8,20.8v366.2
				C1280.1,1290.9,1270.8,1300.2,1259.3,1300.2z"/>
			<path class="st2" d="M1185,1282.9H647.6c-38.7,0-70-31.4-70-70V979.8c0-38.7,31.4-70,70-70H1185c38.7,0,70,31.4,70,70v233.1
				C1255,1251.6,1223.7,1282.9,1185,1282.9z"/>
		</g>
		
			<linearGradient id="SVGID_00000059990693026685368440000016204043040807262908_" gradientUnits="userSpaceOnUse" x1="893.359" y1="1022.8198" x2="1221.9431" y2="1022.8198">
			<stop  offset="0" style="stop-color:#B6E6F7"/>
			<stop  offset="1" style="stop-color:#D4F1F9"/>
		</linearGradient>
		<path style="fill:url(#SVGID_00000059990693026685368440000016204043040807262908_);" d="M1216.4,1041.4H898.9
			c-3,0-5.5-2.5-5.5-5.5v-26.2c0-3,2.5-5.5,5.5-5.5h317.5c3,0,5.5,2.5,5.5,5.5v26.2C1221.9,1038.9,1219.5,1041.4,1216.4,1041.4z"/>
		
			<linearGradient id="SVGID_00000091731261612848465270000014324654657842840452_" gradientUnits="userSpaceOnUse" x1="893.359" y1="1102.5321" x2="1221.9431" y2="1102.5321">
			<stop  offset="0" style="stop-color:#B6E6F7"/>
			<stop  offset="1" style="stop-color:#D4F1F9"/>
		</linearGradient>
		<path style="fill:url(#SVGID_00000091731261612848465270000014324654657842840452_);" d="M1216.4,1121.1H898.9
			c-3,0-5.5-2.5-5.5-5.5v-26.2c0-3,2.5-5.5,5.5-5.5h317.5c3,0,5.5,2.5,5.5,5.5v26.2C1221.9,1118.7,1219.5,1121.1,1216.4,1121.1z"/>
		
			<linearGradient id="SVGID_00000053524667362351406800000008499753853449863811_" gradientUnits="userSpaceOnUse" x1="893.359" y1="1178.9951" x2="1221.9431" y2="1178.9951">
			<stop  offset="0" style="stop-color:#B6E6F7"/>
			<stop  offset="1" style="stop-color:#D4F1F9"/>
		</linearGradient>
		<path style="fill:url(#SVGID_00000053524667362351406800000008499753853449863811_);" d="M1216.4,1197.6H898.9
			c-3,0-5.5-2.5-5.5-5.5v-26.2c0-3,2.5-5.5,5.5-5.5h317.5c3,0,5.5,2.5,5.5,5.5v26.2C1221.9,1195.1,1219.5,1197.6,1216.4,1197.6z"/>
		
			<linearGradient id="SVGID_00000086686325900323270480000016251245421979295370_" gradientUnits="userSpaceOnUse" x1="621.6055" y1="1008.3538" x2="760.0654" y2="1008.3538">
			<stop  offset="0" style="stop-color:#B6E6F7"/>
			<stop  offset="1" style="stop-color:#D4F1F9"/>
		</linearGradient>
		<path style="fill:url(#SVGID_00000086686325900323270480000016251245421979295370_);" d="M752.7,1066.2H628.9
			c-4.1,0-7.3-3.3-7.3-7.3V957.8c0-4.1,3.3-7.3,7.3-7.3h123.8c4.1,0,7.3,3.3,7.3,7.3v101.1C760.1,1062.9,756.8,1066.2,752.7,1066.2z
			"/>
	</g>
	<g>
		<g>
			
				<linearGradient id="SVGID_00000114758075250420256300000009412607790981185680_" gradientUnits="userSpaceOnUse" x1="2805.4827" y1="1398.2883" x2="2608.5212" y2="2041.9294">
				<stop  offset="0" style="stop-color:#21B2E7"/>
				<stop  offset="1" style="stop-color:#306CB3"/>
			</linearGradient>
			<path style="fill:url(#SVGID_00000114758075250420256300000009412607790981185680_);" d="M3081.6,1805.3h-676.4
				c-11.5,0-20.8-9.3-20.8-20.8v-366.2c0-11.5,9.3-20.8,20.8-20.8h676.4c11.5,0,20.8,9.3,20.8,20.8v366.2
				C3102.3,1796,3093,1805.3,3081.6,1805.3z"/>
			<path class="st2" d="M3007.2,1787.9h-537.3c-38.7,0-70-31.4-70-70v-233.1c0-38.7,31.4-70,70-70h537.3c38.7,0,70,31.4,70,70v233.1
				C3077.2,1756.6,3045.9,1787.9,3007.2,1787.9z"/>
		</g>
		
			<linearGradient id="SVGID_00000011028125305192276920000000962081207565209751_" gradientUnits="userSpaceOnUse" x1="2715.5955" y1="1527.8546" x2="3044.1794" y2="1527.8546">
			<stop  offset="0" style="stop-color:#B6E6F7"/>
			<stop  offset="1" style="stop-color:#D4F1F9"/>
		</linearGradient>
		<path style="fill:url(#SVGID_00000011028125305192276920000000962081207565209751_);" d="M3038.7,1546.5h-317.5
			c-3,0-5.5-2.5-5.5-5.5v-26.2c0-3,2.5-5.5,5.5-5.5h317.5c3,0,5.5,2.5,5.5,5.5v26.2C3044.2,1544,3041.7,1546.5,3038.7,1546.5z"/>
		
			<linearGradient id="SVGID_00000071517712329945035980000008867758346670842016_" gradientUnits="userSpaceOnUse" x1="2715.5955" y1="1607.567" x2="3044.1794" y2="1607.567">
			<stop  offset="0" style="stop-color:#B6E6F7"/>
			<stop  offset="1" style="stop-color:#D4F1F9"/>
		</linearGradient>
		<path style="fill:url(#SVGID_00000071517712329945035980000008867758346670842016_);" d="M3038.7,1626.2h-317.5
			c-3,0-5.5-2.5-5.5-5.5v-26.2c0-3,2.5-5.5,5.5-5.5h317.5c3,0,5.5,2.5,5.5,5.5v26.2C3044.2,1623.7,3041.7,1626.2,3038.7,1626.2z"/>
		
			<linearGradient id="SVGID_00000085228321923156343060000015391827726387853501_" gradientUnits="userSpaceOnUse" x1="2715.5955" y1="1684.03" x2="3044.1794" y2="1684.03">
			<stop  offset="0" style="stop-color:#B6E6F7"/>
			<stop  offset="1" style="stop-color:#D4F1F9"/>
		</linearGradient>
		<path style="fill:url(#SVGID_00000085228321923156343060000015391827726387853501_);" d="M3038.7,1702.6h-317.5
			c-3,0-5.5-2.5-5.5-5.5v-26.2c0-3,2.5-5.5,5.5-5.5h317.5c3,0,5.5,2.5,5.5,5.5v26.2C3044.2,1700.2,3041.7,1702.6,3038.7,1702.6z"/>
		
			<linearGradient id="SVGID_00000168823136091577459750000009708905495252124329_" gradientUnits="userSpaceOnUse" x1="2443.8418" y1="1513.3887" x2="2582.302" y2="1513.3887">
			<stop  offset="0" style="stop-color:#B6E6F7"/>
			<stop  offset="1" style="stop-color:#D4F1F9"/>
		</linearGradient>
		<path style="fill:url(#SVGID_00000168823136091577459750000009708905495252124329_);" d="M2575,1571.3h-123.8
			c-4.1,0-7.3-3.3-7.3-7.3v-101.1c0-4.1,3.3-7.3,7.3-7.3H2575c4.1,0,7.3,3.3,7.3,7.3v101.1C2582.3,1568,2579,1571.3,2575,1571.3z"/>
	</g>
	<g>
		<path class="st11" d="M2875.6,1776.4c129.4-17.7,164.8,7.4,164.8,7.4l-57.3,101.9c0,0-127.9,4.2-223.1-61.5
			c16.2-19.4,27-40.4,33.8-56.6C2817.9,1776.2,2845.4,1780.5,2875.6,1776.4z"/>
		
			<linearGradient id="SVGID_00000083802758665808971540000014681999266712798868_" gradientUnits="userSpaceOnUse" x1="-3257.6465" y1="1636.7949" x2="-3130.5093" y2="1636.7949" gradientTransform="matrix(-0.9986 5.280000e-02 5.280000e-02 0.9986 -549.0528 241.664)">
			<stop  offset="0" style="stop-color:#FEBBBA"/>
			<stop  offset="1" style="stop-color:#FF928E"/>
		</linearGradient>
		<path style="fill:url(#SVGID_00000083802758665808971540000014681999266712798868_);" d="M2662,1596.3c0-4.2,5.5-5.6,7.5-1.9
			l18.5,34.5c3.6,6.7,5,14.3,4.1,21.8l-4.7,20.9c-1.2,10.1,2,20.3,8.7,27.9c16.2,18.2,50.5,51.3,97.8,68.1
			c-6.8,16.3-17.6,37.3-33.8,56.6c-34.9-24.1-65.5-57.6-83.7-104.2c-7.7-1.9-13.1-8.7-13.2-16.6L2662,1596.3z"/>
		<g>
			
				<linearGradient id="SVGID_00000092441369446360733710000017240635008219938196_" gradientUnits="userSpaceOnUse" x1="-3538.9529" y1="2354.2593" x2="-3454.1345" y2="2354.2593" gradientTransform="matrix(-0.9937 -0.112 -0.112 0.9937 -158.7615 21.631)">
				<stop  offset="0" style="stop-color:#142750"/>
				<stop  offset="1" style="stop-color:#306CB3"/>
			</linearGradient>
			<path style="fill:url(#SVGID_00000092441369446360733710000017240635008219938196_);" d="M3085.8,2726.4c0,0,7.7,15.8,5.4,57.4
				c-0.2,3.9-3.6,6.8-7.5,6.4l-73.2-8.3c-2.9-0.3-4.7-3.5-3.5-6.1c5.7-12.2,22.2-41.7,53.1-56.2L3085.8,2726.4z"/>
			
				<linearGradient id="SVGID_00000057854035887936784540000002267720970037518000_" gradientUnits="userSpaceOnUse" x1="-3530.3525" y1="2314.8447" x2="-3495.9517" y2="2314.8447" gradientTransform="matrix(-0.9937 -0.112 -0.112 0.9937 -158.7615 21.631)">
				<stop  offset="0" style="stop-color:#FEBBBA"/>
				<stop  offset="1" style="stop-color:#FF928E"/>
			</linearGradient>
			<path style="fill:url(#SVGID_00000057854035887936784540000002267720970037518000_);" d="M3092.2,2698.8l-8.1,34.3
				c-0.7,3-3.3,5.1-6.4,5.1c-4.1,0-9.9-0.3-15.5-1.9c-5-1.4-8.2-6.4-7.6-11.6l3.8-33.5L3092.2,2698.8z"/>
			
				<linearGradient id="SVGID_00000012433345472401017360000000869088978098341054_" gradientUnits="userSpaceOnUse" x1="-3276.4053" y1="2253.6152" x2="-3143.3247" y2="2253.6152" gradientTransform="matrix(-0.9997 -2.500000e-02 -2.500000e-02 0.9997 -300.823 402.2802)">
				<stop  offset="0" style="stop-color:#142750"/>
				<stop  offset="1" style="stop-color:#306CB3"/>
			</linearGradient>
			<path style="fill:url(#SVGID_00000012433345472401017360000000869088978098341054_);" d="M2905.3,2704.4c0,0,13.6,22.3,12.5,52.4
				c-0.2,7.1-6.3,12.6-13.4,12.4l-114.4-2.9c-5.4-0.1-7.4-7.1-2.9-10c22-14.7,65.3-42,96.4-52.4L2905.3,2704.4z"/>
			
				<linearGradient id="SVGID_00000160892631655717713520000012426107477932328085_" gradientUnits="userSpaceOnUse" x1="-3275.1697" y1="2219.1653" x2="-3240.9585" y2="2219.1653" gradientTransform="matrix(-0.9991 -4.230000e-02 -4.230000e-02 0.9991 -263.9859 332.5323)">
				<stop  offset="0" style="stop-color:#FEBBBA"/>
				<stop  offset="1" style="stop-color:#FF928E"/>
			</linearGradient>
			<path style="fill:url(#SVGID_00000160892631655717713520000012426107477932328085_);" d="M2915.1,2671.4l-10.7,42.8
				c-1.2,4.8-6.1,7.8-10.8,6.6c-2.9-0.8-6.3-2.2-9.9-4.6c-3.4-2.3-5-6.6-4.1-10.6l11.4-51.9L2915.1,2671.4z"/>
			
				<linearGradient id="SVGID_00000163058203731969005850000006381779686516341656_" gradientUnits="userSpaceOnUse" x1="3239.0964" y1="1902.9459" x2="2932.7993" y2="2709.5293">
				<stop  offset="0" style="stop-color:#21B2E7"/>
				<stop  offset="1" style="stop-color:#306CB3"/>
			</linearGradient>
			<path style="fill:url(#SVGID_00000163058203731969005850000006381779686516341656_);" d="M3144.7,2087.1c0,0,27.7,30.6,29.8,63.8
				c2.1,33.2-79.8,560.5-79.8,560.5s-31.3,1.6-46.1-9.7c0,0,20-345.9,14.7-426.9c0,0-115,347.7-143,409.7c0,0-30,0.3-38.9-6.4
				c0,0,71.7-459.4,105.6-538.7L3144.7,2087.1z"/>
			<path class="st2" d="M3065.8,2263.2c-0.3,0-0.7-0.1-1-0.2c-1.5-0.6-2.3-2.3-1.7-3.8l18.7-48.6c0.3-0.7,0.8-1.2,1.4-1.6l30.2-14.9
				c1.4-0.7,3.2-0.1,3.9,1.3c0.7,1.4,0.1,3.2-1.3,3.9l-29.2,14.4l-18.3,47.5C3068.1,2262.4,3067,2263.2,3065.8,2263.2z"/>
			
				<linearGradient id="SVGID_00000041994150688898273480000010966194692194483603_" gradientUnits="userSpaceOnUse" x1="3436.8906" y1="1340.0204" x2="3200.9146" y2="1646.7889">
				<stop  offset="0" style="stop-color:#F8DAC6"/>
				<stop  offset="1" style="stop-color:#EB8E51"/>
			</linearGradient>
			<path style="fill:url(#SVGID_00000041994150688898273480000010966194692194483603_);" d="M2827,1798.9
				c51.1-43.9,140.3-56.3,191.5-59.8c22.4-1.5,42.8,13.2,48.2,35c15.7,63.3,59.4,228.3,68.2,256.8c7.3,23.4,15,46.3,20,60.6
				c3,8.6-1.5,17.9-10.1,20.9c-44.5,15.6-123.2,30.1-155,35.6c-7,1.2-13.2-4.6-12.4-11.7c0.7-6-0.3-12-2.8-17.5l-94.8-207.7
				c-81.8,72.5-146.4,72.7-193.3,49.5c11.1-24.5,19.4-49.4,24.8-74.6C2785.1,1881.8,2827,1798.9,2827,1798.9z"/>
			
				<linearGradient id="SVGID_00000016784128505387896110000003949081575573613440_" gradientUnits="userSpaceOnUse" x1="-2839.8088" y1="1325.5586" x2="-3114.5266" y2="1667.334" gradientTransform="matrix(-0.9937 -0.112 -0.112 0.9937 -158.7615 21.631)">
				<stop  offset="0" style="stop-color:#FEBBBA"/>
				<stop  offset="1" style="stop-color:#FF928E"/>
			</linearGradient>
			<path style="fill:url(#SVGID_00000016784128505387896110000003949081575573613440_);" d="M2593.4,1859l15-15.9
				c39,33.8,73.5,44.6,103,42.9c-5.5,25.2-13.7,50.1-24.8,74.6C2624.7,1930.1,2593.4,1859,2593.4,1859z"/>
			
				<linearGradient id="SVGID_00000139992793247334585630000016479810882948997553_" gradientUnits="userSpaceOnUse" x1="-2787.7244" y1="1367.4167" x2="-3062.448" y2="1709.1993" gradientTransform="matrix(-0.9937 -0.112 -0.112 0.9937 -158.7615 21.631)">
				<stop  offset="0" style="stop-color:#FEBBBA"/>
				<stop  offset="1" style="stop-color:#FF928E"/>
			</linearGradient>
			<path style="fill:url(#SVGID_00000139992793247334585630000016479810882948997553_);" d="M2602.5,1860.3l-73.8-5.4l-63.4-45.4
				c10.4-5,63.9,13.6,63.9,13.6s58.4-2.2,74-0.5c12.9,1.4,9,19.8,7.3,26c-0.3,1.3-0.6,2-0.6,2L2602.5,1860.3z"/>
			
				<linearGradient id="SVGID_00000013903951472737383230000011365739508695882387_" gradientUnits="userSpaceOnUse" x1="-3148.8784" y1="1119.0226" x2="-3414.9392" y2="1607.8833" gradientTransform="matrix(-0.9937 -0.112 -0.112 0.9937 -158.7615 21.631)">
				<stop  offset="0" style="stop-color:#FEBBBA"/>
				<stop  offset="1" style="stop-color:#FF928E"/>
			</linearGradient>
			<path style="fill:url(#SVGID_00000013903951472737383230000011365739508695882387_);" d="M2959.6,1641.2l28.1,99
				c0,0-48,25.8-83.6,18.8l-9.8-87.3L2959.6,1641.2z"/>
			<g>
				
					<linearGradient id="SVGID_00000175322317988133770840000015728035416912931494_" gradientUnits="userSpaceOnUse" x1="5667.9727" y1="1547.6248" x2="5522.2661" y2="1659.1123" gradientTransform="matrix(-0.989 -0.1476 -0.1476 0.989 8716.5098 908.5178)">
					<stop  offset="0" style="stop-color:#FEBBBA"/>
					<stop  offset="1" style="stop-color:#FF928E"/>
				</linearGradient>
				<path style="fill:url(#SVGID_00000175322317988133770840000015728035416912931494_);" d="M2895.4,1552.3
					c0,0-33.9,54.1-40.1,84.3c-6.2,30.1-15.7,48.9,18.5,60.3c34.2,11.4,66.4-1.7,87-29.6c0,0,32.1-42.9,29.3-62.8
					C2987.3,1584.5,2895.4,1552.3,2895.4,1552.3z"/>
				
					<linearGradient id="SVGID_00000183244017773224482670000006274942744672175246_" gradientUnits="userSpaceOnUse" x1="5565.3975" y1="1459.3495" x2="5701.1074" y2="1634.0753" gradientTransform="matrix(-0.989 -0.1476 -0.1476 0.989 8716.5098 908.5178)">
					<stop  offset="0" style="stop-color:#142750"/>
					<stop  offset="1" style="stop-color:#306CB3"/>
				</linearGradient>
				<path style="fill:url(#SVGID_00000183244017773224482670000006274942744672175246_);" d="M2952,1643.7l-1.9-1.2
					c-2.4-1.5-3-4.7-1.4-7c6.4-8.8,19.3-29.3,7.6-36.3c-15.1-9-76.9-31.5-87.2-56.2c-10-23.7,5.9-50,24.7-55.3
					c1.3-0.4,2.6,0.3,3,1.5l1.1,3c0.7,2,3.6,2.2,4.5,0.2l0,0c0.9-1.9,3.6-1.9,4.4,0c3.2,7.4,13,20.1,42.7,30.2
					c42.2,14.5,68.2,36.3,64.4,66.4c-0.2,1.9,1.6,3.3,3.4,2.5c3.5-1.5,8.8-1.6,14.7,5.2c10.4,11.8,1.7,37-27.6,54.5
					c-1.4,0.8-1.7,2.8-0.5,3.8c4.3,3.8,10.2,12.2-9.5,19.2c-20.4,7.3-34.4,4.3-39.7,2.6c-1.3-0.4-2-1.9-1.5-3.2l9.7-25.5
					c0.6-1.4-0.4-3-1.9-3.2L2952,1643.7z"/>
				
					<linearGradient id="SVGID_00000106144180644297041100000013457779368006913981_" gradientUnits="userSpaceOnUse" x1="5649.8984" y1="1524.0071" x2="5504.1929" y2="1635.4943" gradientTransform="matrix(-0.989 -0.1476 -0.1476 0.989 8716.5098 908.5178)">
					<stop  offset="0" style="stop-color:#FEBBBA"/>
					<stop  offset="1" style="stop-color:#FF928E"/>
				</linearGradient>
				<path style="fill:url(#SVGID_00000106144180644297041100000013457779368006913981_);" d="M2950.1,1649.1
					c0,0,15.1-35.6,30.2-22.7c15,12.8-14.8,40.2-28.3,39.6L2950.1,1649.1z"/>
			</g>
		</g>
		<path class="st11" d="M2460.9,1650.3L2460.9,1650.3c16-9.4,36.6-3.8,45.6,12.4l42.5,76.2c4.3,7.6,15.4,7.1,19-0.8l105.4-234.7
			c5.3-11.7,22.7-7.7,22.5,5.1c-1.1,71.8-20.1,208.2-134.8,322.4c0,0-63.2-24.6-114.1-136.3
			C2439.6,1678.4,2445.6,1659.2,2460.9,1650.3z"/>
	</g>
	<path class="st5" d="M1266.8,792.1H575.4c-7.4,0-13.3-6-13.3-13.3V641.9c0-7.4,6-13.3,13.3-13.3h691.4c7.4,0,13.3,6,13.3,13.3
		v136.9C1280.1,786.2,1274.1,792.1,1266.8,792.1z"/>
	<path class="st5" d="M2169.5,795.5h-691.4c-7.4,0-13.3-6-13.3-13.3V645.3c0-7.4,6-13.3,13.3-13.3h691.4c7.4,0,13.3,6,13.3,13.3
		v136.9C2182.8,789.6,2176.9,795.5,2169.5,795.5z"/>
	<path class="st5" d="M3077.5,795.5h-691.4c-7.4,0-13.3-6-13.3-13.3V645.3c0-7.4,6-13.3,13.3-13.3h691.4c7.4,0,13.3,6,13.3,13.3
		v136.9C3090.8,789.6,3084.8,795.5,3077.5,795.5z"/>
	<g>
		<g>
			<g>
				<path class="st2" d="M676.1,2560.4c0,0-148.2-342.3-36-702.8c0.7-2.4,4.9-1.9,5.2,0.6C672.4,2076.2,680.4,2312.4,676.1,2560.4z"
					/>
				<path class="st5" d="M675.5,2553.2c-0.8,0-1.6-0.5-1.8-1.4c-26.3-93.4-36.3-252.1-40-368.7c-4.1-126.3-1.9-232-1.9-233.1
					c0-1,0.7-1.9,1.9-1.9c1,0,1.9,0.9,1.9,1.9c0,1.1-2.2,106.6,1.9,232.9c3.8,116.5,13.7,274.8,39.9,367.8c0.3,1-0.3,2.1-1.3,2.3
					C675.9,2553.2,675.7,2553.2,675.5,2553.2z"/>
			</g>
			<g>
				<path class="st2" d="M710,2504.6c0,0-91.5-419.9,81.4-844.9c1.1-2.8,5.2-2,5.1,1C787.3,1923.9,755.9,2207.6,710,2504.6z"/>
				<path class="st5" d="M711,2495.6c-1,0-1.8-0.7-1.9-1.7c-20.6-217.3,57.8-718.9,58.6-723.9c0.2-1,1.1-1.8,2.2-1.6
					c1,0.2,1.7,1.1,1.6,2.2c-0.8,5-79.1,506.2-58.5,723c0.1,1-0.7,2-1.7,2.1C711.1,2495.6,711,2495.6,711,2495.6z"/>
			</g>
			<g>
				<path class="st2" d="M724.6,2618.5c0,0-43.8-366.3,174-696c1.4-2.2,5.4-0.8,5,1.7C865.1,2143.4,802.7,2376.5,724.6,2618.5z"/>
				<path class="st5" d="M726.7,2611.3C726.7,2611.3,726.7,2611.3,726.7,2611.3c-1.1,0-1.9-0.9-1.9-1.9c2-97,39.4-254.5,70.4-369.6
					c33.6-124.6,67.2-227.7,67.6-228.7c0.3-1,1.4-1.5,2.4-1.2c1,0.3,1.5,1.4,1.2,2.4c-0.3,1-33.9,104-67.5,228.5
					c-31,114.9-68.4,272-70.3,368.6C728.6,2610.5,727.7,2611.3,726.7,2611.3z"/>
			</g>
		</g>
		<path class="st2" d="M613.4,2415.7h201.4c15.1,0,26.3,14.2,23.5,29c-12,63.6-36.4,119.9-61.7,166.9c-5.7,10.5-16.6,17.2-28.5,17.2
			h-65.7c-12.1,0-23.2-6.6-29.1-17.2c-31.6-57.5-47-114.5-59.9-170.4C590.4,2428.4,600.2,2415.7,613.4,2415.7z"/>
	</g>
	<g>
		<g>
			<path class="st2" d="M2291,2519.1c0,0-142.8,157.4-262,90.9c-95.8-53.5,40.3-39.5,155.8-64.8c9.1-2,6.7-15.5-2.5-14.3
				c-90.4,12-228.2,21.8-252.2-25.3c-36.2-71.1-1.1-48.1,108.9-37.8c110,10.3,131.2-16.9,59.4-33.8
				c-71.8-16.9-186.1,20.5-212.7-14.3c-26.6-34.8-41.2-103.9-51.8-133.6c-10.6-29.7,137-74.3,176.9-35.3
				c39.9,39,72.3,126.1,119.6,142c47.3,15.9-3.6-61.1-35-100.9c-31.4-39.8-43.9-69.3,18.9-59.8c62.7,9.5,95.9,86.1,102.5,143.2
				c6.6,57.2,28.7,89.1,27.7,60.8c-1-28.3-11.3-115-31.3-141.1C2193.2,2269,2336.4,2300.8,2291,2519.1z"/>
			<path class="st45" d="M2279.4,2520.6c-0.6,0.2-1.4,0.1-1.9-0.3c-122.6-107.2-328.1-185.1-330.2-185.9c-1-0.4-1.5-1.4-1.1-2.4
				c0.4-1,1.4-1.5,2.4-1.1c2.1,0.8,208.2,78.9,331.3,186.6c0.8,0.7,0.9,1.9,0.2,2.6C2279.9,2520.3,2279.6,2520.5,2279.4,2520.6z"/>
		</g>
		<g>
			
				<linearGradient id="SVGID_00000023980349497545147340000011284655243897642915_" gradientUnits="userSpaceOnUse" x1="2059.1167" y1="3205.0137" x2="2667.4595" y2="2433.833" gradientTransform="matrix(0.9919 -0.1267 0.1267 0.9919 -331.8696 -274.3617)">
				<stop  offset="0" style="stop-color:#21B2E7"/>
				<stop  offset="1" style="stop-color:#306CB3"/>
			</linearGradient>
			<path style="fill:url(#SVGID_00000023980349497545147340000011284655243897642915_);" d="M2377.2,2619.7c0,0-260.8,8.6-304-153.4
				c-34.7-130.2,69.3,1.8,190.2,82c9.5,6.3,19.4-7.4,10.5-14.4c-87.8-69.4-214.2-182.6-193.1-244c31.8-92.6,41.4-42,126.4,63.8
				s127,101.3,80.6,23.5c-46.4-77.8-177-146.5-169.1-199.7c7.9-53.2,56.4-125,73.6-159.8c17.1-34.7,182.5,57.3,182.2,125.8
				c-0.3,68.5-49.4,171.4-22.9,226.8c26.4,55.3,50.8-55.4,59-117c8.2-61.6,23.6-97.9,68.9-34.4c45.2,63.4,6.1,158.1-38.7,212.7
				c-44.7,54.7-54,101.5-30,76.4c24.1-25,91.8-108.2,97.6-148.1C2514.2,2319.8,2608.4,2473.2,2377.2,2619.7z"/>
			<path class="st45" d="M2365.9,2610.7c-0.7-0.3-1.3-1.1-1.3-2c-10.2-199.6-117.1-447.4-118.2-449.9c-0.5-1.2,0-2.5,1.2-3
				c1.2-0.5,2.5,0,3,1.2c1.1,2.5,108.3,251,118.5,451.5c0.1,1.3-0.9,2.4-2.2,2.4C2366.6,2610.9,2366.3,2610.9,2365.9,2610.7z"/>
		</g>
	</g>
	<g>
		<g>
			<g>
				
					<linearGradient id="SVGID_00000094595578341038091190000005075700584314114700_" gradientUnits="userSpaceOnUse" x1="1909.4915" y1="462.5566" x2="1839.7961" y2="734.3686">
					<stop  offset="0" style="stop-color:#F8DAC6"/>
					<stop  offset="1" style="stop-color:#EB8E51"/>
				</linearGradient>
				<path style="fill:url(#SVGID_00000094595578341038091190000005075700584314114700_);" d="M2065.5,1629.7h-789.6
					c-11.5,0-20.8-9.3-20.8-20.8v-430.5c0-11.5,9.3-20.8,20.8-20.8h789.6c11.5,0,20.8,9.3,20.8,20.8V1609
					C2086.3,1620.4,2077,1629.7,2065.5,1629.7z"/>
				
					<linearGradient id="SVGID_00000116918785299888317860000000270794258000735656_" gradientUnits="userSpaceOnUse" x1="1660.2778" y1="1025.47" x2="1680.5634" y2="2546.8755">
					<stop  offset="0" style="stop-color:#F8DAC6"/>
					<stop  offset="1" style="stop-color:#EB8E51"/>
				</linearGradient>
				<path style="fill:url(#SVGID_00000116918785299888317860000000270794258000735656_);" d="M2036.5,1609.7h-742.6
					c-11.5,0-20.8-9.3-20.8-20.8v-390.4c0-11.5,9.3-20.8,20.8-20.8h742.6c11.5,0,20.8,9.3,20.8,20.8v390.4
					C2057.3,1600.4,2048,1609.7,2036.5,1609.7z"/>
			</g>
			<path class="st21" d="M2013.5,1330.1h-369.3c-3,0-5.5-2.5-5.5-5.5v-32c0-3,2.5-5.5,5.5-5.5h369.3c3,0,5.5,2.5,5.5,5.5v32
				C2019,1327.7,2016.5,1330.1,2013.5,1330.1z"/>
			<path class="st21" d="M2013.5,1422.4h-369.3c-3,0-5.5-2.5-5.5-5.5v-32c0-3,2.5-5.5,5.5-5.5h369.3c3,0,5.5,2.5,5.5,5.5v32
				C2019,1419.9,2016.5,1422.4,2013.5,1422.4z"/>
			<path class="st21" d="M2013.5,1510.9h-369.3c-3,0-5.5-2.5-5.5-5.5v-32c0-3,2.5-5.5,5.5-5.5h369.3c3,0,5.5,2.5,5.5,5.5v32
				C2019,1508.4,2016.5,1510.9,2013.5,1510.9z"/>
			<path class="st21" d="M1477,1358.8h-145.6c-4.1,0-7.3-3.3-7.3-7.3v-119.3c0-4.1,3.3-7.3,7.3-7.3H1477c4,0,7.3,3.3,7.3,7.3v119.3
				C1484.3,1355.5,1481,1358.8,1477,1358.8z"/>
		</g>
		<g>
			
				<linearGradient id="SVGID_00000110461829752471705120000014292881392813416102_" gradientUnits="userSpaceOnUse" x1="-492.0661" y1="1423.7526" x2="-258.4495" y2="1951.244" gradientTransform="matrix(-1 0 0 1 778.9335 0)">
				<stop  offset="0" style="stop-color:#FEBBBA"/>
				<stop  offset="1" style="stop-color:#FF928E"/>
			</linearGradient>
			<path style="fill:url(#SVGID_00000110461829752471705120000014292881392813416102_);" d="M1256.4,1518.9l0.8-25.3l-26.4-52.5
				c-4.8-9.6-4.9-20.9-0.1-30.6l30-60.5c0,0,17.3,131.3,21.9,142.2c4.6,10.9-12.3,30.5-12.3,30.5L1256.4,1518.9z"/>
			
				<linearGradient id="SVGID_00000022562948638218712180000003926450643039164068_" gradientUnits="userSpaceOnUse" x1="-306.6119" y1="1482.5505" x2="-154.8557" y2="1744.1301" gradientTransform="matrix(-1 0 0 1 778.9335 0)">
				<stop  offset="0" style="stop-color:#142750"/>
				<stop  offset="1" style="stop-color:#306CB3"/>
			</linearGradient>
			<path style="fill:url(#SVGID_00000022562948638218712180000003926450643039164068_);" d="M1037.5,1496.7c0,0-28.3,13.8-33.5,29.6
				c-4.2,12.7-35.4,14.3-38.5,39.2c-1.6,12.9-11.1,23.2-23.9,25.1c-31.9,4.9-81.2,21.5-89,76.9c-6,42.3,15.6,58.4,38.2,63.9
				c16.6,4.1,27.7,20.3,24.3,37c-3.2,16.1,1.6,34.7,29.5,49.4c62.5,33,125-78.2,125-78.2l12.8-194.1L1037.5,1496.7z"/>
			
				<linearGradient id="SVGID_00000021114222216755115920000013437322040949417382_" gradientUnits="userSpaceOnUse" x1="-518.7012" y1="1443.9952" x2="-349.682" y2="1825.6299" gradientTransform="matrix(-1 0 0 1 778.9335 0)">
				<stop  offset="0" style="stop-color:#FEBBBA"/>
				<stop  offset="1" style="stop-color:#FF928E"/>
			</linearGradient>
			<path style="fill:url(#SVGID_00000021114222216755115920000013437322040949417382_);" d="M1256.4,1518.9
				c0,0,5.7,168.3-142.2,163.3c0,0,45.6,74.4,69.4,79c0,0,151.3-52.5,98.8-269L1256.4,1518.9z"/>
			
				<linearGradient id="SVGID_00000137119269120793160130000012451018604028189084_" gradientUnits="userSpaceOnUse" x1="-1.6643" y1="2750.4197" x2="69.6748" y2="2750.4197" gradientTransform="matrix(-1 0 0 1 778.9335 0)">
				<stop  offset="0" style="stop-color:#142750"/>
				<stop  offset="1" style="stop-color:#306CB3"/>
			</linearGradient>
			<path style="fill:url(#SVGID_00000137119269120793160130000012451018604028189084_);" d="M780.5,2713.6l-4,33.3
				c-4.2,15.8-24.6,55.6-50.7,53c-16.1-1.6-18-48.5-15.8-55.6c4.1-12.8,11.5-32.1,22.3-43.5h36.9
				C776.1,2700.8,781.3,2706.8,780.5,2713.6z"/>
			
				<linearGradient id="SVGID_00000143577137259895175510000012753432871087328444_" gradientUnits="userSpaceOnUse" x1="-302.2194" y1="3011.1294" x2="-199.8601" y2="1814.804" gradientTransform="matrix(-1 0 0 1 778.9335 0)">
				<stop  offset="0" style="stop-color:#FEBBBA"/>
				<stop  offset="1" style="stop-color:#FF928E"/>
			</linearGradient>
			<path style="fill:url(#SVGID_00000143577137259895175510000012753432871087328444_);" d="M1069.5,2324l6.2,36.6
				c0,0-20.9,211.2-24.6,295.7c-0.6,13.2,2.8,26.3,9.8,37.6l36.3,58.9l-92.2-54.4l-1.8-11.2l15.1-20.7l-19.8-236.6
				c-1.2-13.9,1.7-27.8,8.3-40.2l19.1-35.8L1069.5,2324z"/>
			
				<linearGradient id="SVGID_00000034810935279260636260000018331872647842535046_" gradientUnits="userSpaceOnUse" x1="-254.2496" y1="2717.6506" x2="-139.1579" y2="2717.6506" gradientTransform="matrix(-1 0 0 1 778.9335 0)">
				<stop  offset="0" style="stop-color:#142750"/>
				<stop  offset="1" style="stop-color:#306CB3"/>
			</linearGradient>
			<path style="fill:url(#SVGID_00000034810935279260636260000018331872647842535046_);" d="M1103.3,2761.4h-29.4
				c-5.5,0-10.7-2.5-14.1-6.9c-9.2-11.9-28.2-35.2-37.2-35.8c-12.2-0.8-10.7,42.7-10.7,42.7h-6.9l-8.7-54
				c-2.2-13.6,4.6-27.1,16.8-33.4l0,0c0,0,2.8,20.7,18,29.8c15.2,9.1,61.7,41.9,61.7,41.9s5.7-0.8,12,0.3
				C1114,2747.6,1112.7,2761.4,1103.3,2761.4z"/>
			
				<linearGradient id="SVGID_00000010294112235907936640000011258968174146729392_" gradientUnits="userSpaceOnUse" x1="-96.3175" y1="3028.9297" x2="6.0687" y2="1832.2905" gradientTransform="matrix(-1 0 0 1 778.9335 0)">
				<stop  offset="0" style="stop-color:#FEBBBA"/>
				<stop  offset="1" style="stop-color:#FF928E"/>
			</linearGradient>
			<path style="fill:url(#SVGID_00000010294112235907936640000011258968174146729392_);" d="M943.3,2341.4
				c0,0-122.2,231.7-141.6,284.7c-19.4,52.9-26.2,97-26.5,101.2c-0.4,6.5-8.5,12.8-30.9,12.8c-11.6,0-17.2-4.6-20-9.1
				c-2.4-3.8-2.5-8.6-0.5-12.6c7.1-14.3,29.5-60,37.8-80.7c9.9-24.8,31.2-136.9,42.9-175.9c11.7-39,24.9-81.3,75.9-120.3
				C880.4,2341.4,915.4,2307.1,943.3,2341.4z"/>
			
				<linearGradient id="SVGID_00000064340313709939572780000004922114538936339362_" gradientUnits="userSpaceOnUse" x1="1943.0116" y1="1029.6544" x2="1720.5203" y2="1238.6615">
				<stop  offset="0" style="stop-color:#F8DAC6"/>
				<stop  offset="1" style="stop-color:#EB8E51"/>
			</linearGradient>
			<path style="fill:url(#SVGID_00000064340313709939572780000004922114538936339362_);" d="M1020.4,1961.6
				c17.9-75.8-0.1-132.9-19-168.1c-15.1-28.1-4.5-62.8,23.8-77.5c44.2-23,89-33.7,89-33.7s87.6,64,77.2,114.1
				c-6.1,29.4-61.6,175.9-61.6,175.9S1078.6,1996.6,1020.4,1961.6z"/>
			
				<linearGradient id="SVGID_00000141435081464070249450000014715835367620834450_" gradientUnits="userSpaceOnUse" x1="841.5121" y1="1099.5081" x2="921.7288" y2="1623.5919">
				<stop  offset="0" style="stop-color:#21B2E7"/>
				<stop  offset="1" style="stop-color:#306CB3"/>
			</linearGradient>
			<path style="fill:url(#SVGID_00000141435081464070249450000014715835367620834450_);" d="M950.6,2027.8
				c12.8-38.6,69.9-66.1,69.9-66.1c58.2,34.9,109.5,10.7,109.5,10.7s11.5,44,3.6,84.8c-7.9,40.9-57.8,303.5-57.8,303.5
				c-78.5,15.9-199.2-16-199.2-16C926.5,2255.8,937.7,2066.4,950.6,2027.8z"/>
			
				<linearGradient id="SVGID_00000034052498233259595210000003016678618818760636_" gradientUnits="userSpaceOnUse" x1="-313.4449" y1="1831.9113" x2="-294.217" y2="1691.2448" gradientTransform="matrix(-1 0 0 1 778.9335 0)">
				<stop  offset="0" style="stop-color:#FEBBBA"/>
				<stop  offset="1" style="stop-color:#FF928E"/>
			</linearGradient>
			<path style="fill:url(#SVGID_00000034052498233259595210000003016678618818760636_);" d="M1057,1594l-25.6,115.1
				c-2.5,10.1,6.8,8.5,17,6.5c16.8-3.2,38.4-9.7,45.6-22.7c0.7-1.3,1.1-2.8,1.3-4.3l11-79.8c0.9-6.3-2.5-12.5-8.4-15.1l-21.2-9.4
				C1068.6,1580.6,1059.1,1585.3,1057,1594z"/>
			<g>
				
					<linearGradient id="SVGID_00000075880410608345190010000003064431582910334083_" gradientUnits="userSpaceOnUse" x1="-361.9769" y1="1650.5493" x2="-194.2124" y2="1351.985" gradientTransform="matrix(-1 0 0 1 778.9335 0)">
					<stop  offset="0" style="stop-color:#FEBBBA"/>
					<stop  offset="1" style="stop-color:#FF928E"/>
				</linearGradient>
				<path style="fill:url(#SVGID_00000075880410608345190010000003064431582910334083_);" d="M1087.1,1484.4c0,0,30.3,12.8,51,56.7
					c20.6,43.8,5.2,64.1-14.1,66.9c-19.4,2.8-48.3,2.4-78.9-26C1014.4,1553.6,1047.6,1469.2,1087.1,1484.4z"/>
				
					<linearGradient id="SVGID_00000173845058120066439290000011068234098016783033_" gradientUnits="userSpaceOnUse" x1="-294.7206" y1="1475.652" x2="-142.9648" y2="1737.2308" gradientTransform="matrix(-1 0 0 1 778.9335 0)">
					<stop  offset="0" style="stop-color:#142750"/>
					<stop  offset="1" style="stop-color:#306CB3"/>
				</linearGradient>
				<path style="fill:url(#SVGID_00000173845058120066439290000011068234098016783033_);" d="M1065.6,1558.6c0,0-22.9-64.2,34-64.9
					l13.4,9.4c0,0,20.9-35.6-13.4-52.5c-34.3-17-74.3-3-88.9,43.2c-14.6,46.1-17.1,77,7.2,99.1c24.3,22.1,34.2-3,34.2-3
					s-13.2-20.7-7.8-31.7c5.4-11,17.8,2.3,17.8,2.3L1065.6,1558.6z"/>
				
					<linearGradient id="SVGID_00000033368523236211500570000002772546187569221807_" gradientUnits="userSpaceOnUse" x1="-326.2664" y1="1670.6156" x2="-158.502" y2="1372.0511" gradientTransform="matrix(-1 0 0 1 778.9335 0)">
					<stop  offset="0" style="stop-color:#FEBBBA"/>
					<stop  offset="1" style="stop-color:#FF928E"/>
				</linearGradient>
				<path style="fill:url(#SVGID_00000033368523236211500570000002772546187569221807_);" d="M1059.2,1565.7c0,0-11.6-33-27-19.9
					c-15.4,13.2,12.6,30.5,23.5,36.2L1059.2,1565.7z"/>
			</g>
			
				<linearGradient id="SVGID_00000147940515373117567140000000697893312532842429_" gradientUnits="userSpaceOnUse" x1="940.449" y1="1909.3667" x2="1518.0087" y2="1513.9211">
				<stop  offset="0" style="stop-color:#FEBBBA"/>
				<stop  offset="1" style="stop-color:#FF928E"/>
			</linearGradient>
			<path style="fill:url(#SVGID_00000147940515373117567140000000697893312532842429_);" d="M1363.1,1650c0,0-77.5,174.1-325.2,80.2
				c-16.3-6.2-32.7,11.5-34,28.9l-0.7,9.4c-2,25.2,18.6,46.5,43.9,45.2c90.4-4.6,220.3,48.3,334.5-105L1363.1,1650z"/>
			
				<linearGradient id="SVGID_00000183928819963978951690000002702902503479218872_" gradientUnits="userSpaceOnUse" x1="949.5847" y1="1922.7084" x2="1527.1434" y2="1527.2634">
				<stop  offset="0" style="stop-color:#FEBBBA"/>
				<stop  offset="1" style="stop-color:#FF928E"/>
			</linearGradient>
			<path style="fill:url(#SVGID_00000183928819963978951690000002702902503479218872_);" d="M1381.5,1708.7c0,0,13-38.1,16.2-62
				c3.3-23.8-8.7-77.3-19-92.4c-10.3-15-12,21.8-16.7,39.2c-4.6,17.3,3.2,42.1,3.2,42.1l-4.7,32.4L1381.5,1708.7z"/>
		</g>
	</g>
</g>
<g>
</g>
<g>
</g>
<g>
</g>
<g>
</g>
<g>
</g>
<g>
</g>
<g>
</g>
<g>
</g>
<g>
</g>
<g>
</g>
<g>
</g>
<g>
</g>
<g>
</g>
<g>
</g>
<g>
</g>
</svg>
